<svg id="Layer_1" data-name="Layer 1" xmlns="http://www.w3.org/2000/svg" viewBox="0 0 1080 1080"><defs><style>.cls-1{fill:#fff;}</style></defs><rect width="1080" height="1080"/><path class="cls-1" d="M501.74,624.53a18.23,18.23,0,0,1,11.49-5.76A21.92,21.92,0,0,1,529.88,624l78,60.33a63.34,63.34,0,0,0,45.71,14.9c41.88-3.57,56.94-46.44,30.41-83.65l-46.6-71.43c-8.8-16.79-6.78-28.42-.48-34.47L797,735.37A314.76,314.76,0,0,1,713.88,809Z"/><path class="cls-1" d="M637.22,509.36c5.6-5.13,14.37-6.07,22-2.57a23.65,23.65,0,0,1,8.65,7.08l62.72,80.48a65.82,65.82,0,0,0,37.58,24.19c28,6.17,45.83-9.88,56.91-40.71C844.26,516,838.87,511.29,842.91,461c.94-11.78,9.81-10,12.65,1.42.21.78.4,1.55.59,2.33A315.29,315.29,0,0,1,804.94,725Z"/><path class="cls-1" d="M419.21,812.55c21.81,1.12,45,9.55,96.27,14.71,14.06,1.43,33.78.29,47.26-4,45.52-14.43,45.81-56.94,27.6-83.53l-85.77-87c-8.87-11.86-8.25-22-2.92-28.1l200.72,191a317.58,317.58,0,0,1-292.11,7.9C398.7,818,406.38,811.9,419.21,812.55Z"/><circle class="cls-1" cx="773.44" cy="563.49" r="29.53"/><circle class="cls-1" cx="642.85" cy="644.51" r="29.53"/><circle class="cls-1" cx="533.14" cy="761.45" r="29.53"/><path class="cls-1" d="M244.34,607.19a16.63,16.63,0,0,0,11.3-9.43l47,18.33a11.87,11.87,0,0,0,6.1,13.44l-12.11,36.85A13.56,13.56,0,1,0,293.86,693l3.44,31.82h-.08a6.78,6.78,0,1,0,8.19,5,7,7,0,0,0-.36-1l26-14.64a10.67,10.67,0,0,0,10.49,3.28l.42-.12,9.71,26.3a10.67,10.67,0,0,0,6.95,20.07,9.48,9.48,0,0,0,1.07-.33l13.56,28.2a10.66,10.66,0,1,0,2.82-1.13,10,10,0,0,0-1.37.44l-13.54-28.17a10.65,10.65,0,0,0,5.31-11.89,10.44,10.44,0,0,0-2-4.09l37.2-34.2a10.67,10.67,0,1,0-3.27-9.24l-48.95,1.57c0-.09,0-.19-.06-.29A10.67,10.67,0,1,0,330,712.92l-25.76,14.52a6.78,6.78,0,0,0-5.39-2.75l-3.43-31.84c.31-.06.63-.1.94-.18a13.55,13.55,0,0,0,10.05-16l56-15.61a13.55,13.55,0,1,0,24.74-10.83l51.69-31.79a13.56,13.56,0,1,0,7.91-20.95,13.27,13.27,0,0,0-1.55.48L397.06,489a16.84,16.84,0,0,0,7.11-7.62l85.26,52.34a16.83,16.83,0,1,0,19.93-7.89l16.41-60.13a16.77,16.77,0,0,0,17.5-9.13l62.39,18.19a9.1,9.1,0,1,0,10.41-7.22l2.59-34a1.08,1.08,0,0,1,.19,0,3.91,3.91,0,0,0,.38-7.48l3.69-48.46a16.47,16.47,0,0,0,4.44-.45c.37-.08.71-.2,1.06-.31l26.76,52.88a6.13,6.13,0,1,0,2-.91c-.2.05-.38.13-.58.2l-26.67-52.73a16.81,16.81,0,0,0,7.13-5.68l80.6,52.21a14.13,14.13,0,1,0,27.7-1.15,13.82,13.82,0,0,0-1-2.87l21.22-23.86a4.59,4.59,0,0,0,6.57-1.94l41,11.41a11.94,11.94,0,1,0,.43-1.54l-41-11.42a4.53,4.53,0,0,0-4.92-5l-13.79-54.31a19.67,19.67,0,1,0-9.29.48l-11.63,78.35a13.9,13.9,0,0,0-4.61.33,14.74,14.74,0,0,0-1.88.61l-30.52-65.74a10.33,10.33,0,0,0-5.84-19.8,10.62,10.62,0,0,0-2.82,1.14l-30.31-65.29a16.83,16.83,0,1,0-12.3,1.31l-18.3,80.74a16.83,16.83,0,0,0-11.76,2.23L579,294.27a6,6,0,0,0-5.4-10.45,5.91,5.91,0,0,0-1.38.54l-30.47-44.62a16.84,16.84,0,1,0-26.51-9.47v0L400.53,264.1c0-.32-.1-.63-.18-.94a11.9,11.9,0,1,0-9.15,14.44L410,342.84a21.78,21.78,0,0,0-7.59,36.27L386.52,399a5.81,5.81,0,0,0-4.19-.57,4.72,4.72,0,0,0-.53.18l-23.39-57.53a6.93,6.93,0,1,0-1.58.61l.09,0,23.44,57.67a5.88,5.88,0,1,0,9.07,3.43,5.79,5.79,0,0,0-1.62-2.81l15.8-19.79a21.79,21.79,0,1,0,8.69-38c-.26.06-.52.16-.78.23l-18.78-65.18a11.92,11.92,0,0,0,7.94-11.47l115-33.89a16.78,16.78,0,0,0,6.5,8.42l-40.07,66a16.83,16.83,0,1,0,5.73,24.44L539.5,363.4a10.22,10.22,0,0,0-.92,7.26,10.07,10.07,0,0,0,1.75,3.74l-64,55.93a18.48,18.48,0,0,0-14.17-5.71l-1.68-36.56a6.83,6.83,0,0,0,.88-.17,8.91,8.91,0,1,0-2.49.24l1.69,36.62c-.64.09-1.29.21-1.94.36a18.52,18.52,0,1,0,18.77,6.43l64-55.94A10.33,10.33,0,0,0,559,368l47.8-4.78c.08.5.17,1,.29,1.49a16.82,16.82,0,0,0,14.28,12.73l-3.68,48.38a2.74,2.74,0,0,0-.63.09,3.89,3.89,0,0,0,0,7.58l-2.58,33.91a8.88,8.88,0,0,0-2,.25,9.12,9.12,0,0,0-6.34,5.54l-62.18-18.13a16.84,16.84,0,1,0-19.73,10.3l-16.37,60a16.76,16.76,0,0,0-17.55,7l-85.48-52.49A16.81,16.81,0,0,0,380,460l-64.58-75.12a24.63,24.63,0,1,0-15.88,6.48l7,109.26c-.22,0-.44,0-.67.09a8.54,8.54,0,0,0-5.31,3.91l-40.48-19.43a17,17,0,1,0-.7,1.45l40.48,19.42a8.46,8.46,0,0,0,2,9l-51.46,62.53a16.69,16.69,0,1,0-6,29.6Zm153.92,97.75a10.65,10.65,0,0,0,.29,2.36,10.79,10.79,0,0,0,2,4.09l-37.2,34.19a10.64,10.64,0,0,0-9.8-2.58c-.14,0-.27.08-.41.12l-9.72-26.3a10.67,10.67,0,0,0,6.21-10.32ZM746.13,332.76a19.46,19.46,0,0,0,6.16-.31l13.79,54.3a4.63,4.63,0,0,0-2.6,5.3,4.47,4.47,0,0,0,.88,1.77L743.5,417.28a14.12,14.12,0,0,0-9-6.16Zm-99.93-69a16.78,16.78,0,0,0,6.9-.21,17.16,17.16,0,0,0,2.39-.79l30.43,65.57a10.32,10.32,0,0,0,8.41,18.11l30.64,66a14.15,14.15,0,0,0-6.92,8.6l-80.11-51.89a16.82,16.82,0,0,0-10-24.68ZM558.78,366.41c0-.21-.07-.41-.12-.62A10.33,10.33,0,0,0,540.34,362l-51.65-32.72a16.77,16.77,0,0,0-5.22-22.25l40.07-66a16.72,16.72,0,0,0,16.85-.44l30.5,44.65a6,6,0,0,0,5.54,10.32,5.45,5.45,0,0,0,1.21-.44l35.62,52.15a16.84,16.84,0,0,0-6.66,14.3ZM386.41,648.86a13.54,13.54,0,0,0-24.34,10.63l-56,15.6a13.54,13.54,0,0,0-7.84-8.2l12.07-36.72a11.89,11.89,0,0,0,15.54-14,12.1,12.1,0,0,0-.69-2L367,593.45a16.8,16.8,0,0,0,30.17-1.56l39.88,14.79a13.41,13.41,0,0,0-.22,7.15,12.81,12.81,0,0,0,1.24,3.21Zm57.41-50.27a13.56,13.56,0,0,0-6.19,6.59l-39.88-14.8a16.8,16.8,0,0,0-16.64-21.92l1.6-78.57a16.71,16.71,0,0,0,10.17.73,16.38,16.38,0,0,0,2.74-.94ZM301.12,391.22a24,24,0,0,0,3.43-.55,24.66,24.66,0,0,0,9.64-4.77l64.5,75a16.81,16.81,0,0,0,2.43,28.27L379.5,568.6q-.87.12-1.74.33a16.62,16.62,0,0,0-7.84,4.38l-56.33-58a8.49,8.49,0,0,0-5.47-14.81Zm2,124.85a8.3,8.3,0,0,0,9.21.21l56.53,58.21a16.77,16.77,0,0,0-3.47,14.76,16.15,16.15,0,0,0,.95,2.77l-41.93,20.72a11.9,11.9,0,0,0-21.21,1.82l-46.94-18.29a16.63,16.63,0,0,0-4.6-17.66Z"/><path class="cls-1" d="M231,712.72c-.55-1.25-1-2.54-1.57-3.76C215.32,678.31,207.33,638.72,200,593.5q-.88-5.64-1.57-11.33c0-.28-.07-.56-.11-.84-.35-3-.64-5.93-.92-8.91-.72-8.08-1.1-15.53-1.33-22-.05-1.64-.13-3.27-.16-4.92,0-.79,0-1.59,0-2.39,0-1.3,0-2.53,0-3.7.31-188.88,154.41-343.12,343.29-343.61,103.16-.25,195.94,45.12,259.23,117-.8-1.23-1.62-2.47-2.45-3.69-.15-.22-.29-.45-.45-.67-.53-.77-1-1.52-1.59-2.28-.27-.43-.58-.85-.88-1.28s-.48-.71-.74-1c-.83-1.19-1.7-2.38-2.56-3.55l0,0a3.06,3.06,0,0,0-.21-.29c-.75-1-1.52-2.05-2.29-3.07-.17-.24-.35-.46-.53-.68l-.29-.39a2.48,2.48,0,0,0-.25-.3c-.07-.08-.11-.16-.18-.24-.17-.25-.37-.47-.56-.71-.71-1-1.44-1.89-2.2-2.81-.91-1.17-1.84-2.3-2.79-3.44l-.4-.5s0,0,0,0l-.05-.06-.67-.81c-.61-.75-1.24-1.49-1.88-2.22-.24-.29-.48-.58-.74-.87a.09.09,0,0,0-.06-.06c-.84-1-1.67-1.94-2.54-2.91a.66.66,0,0,0-.19-.22q-.69-.79-1.41-1.59-1.27-1.44-2.58-2.85l-2.1-2.25-.87-.93c-.35-.37-.7-.73-1.06-1.09-.52-.57-1.07-1.14-1.61-1.7l-.63-.64,0,0L761.9,268a1.14,1.14,0,0,0-.11-.11c-.81-.82-1.61-1.62-2.42-2.42l-1.22-1.2c-.58-.56-1.17-1.12-1.75-1.7h0c-.17-.18-.33-.34-.51-.5-.42-.4-.83-.78-1.25-1.19-.63-.6-1.27-1.2-1.89-1.77s-1.24-1.16-1.88-1.74-1.22-1.14-1.84-1.7l1.54,1.43c-54.15-49.51-124-78.95-197.31-81.9-1.22-.05-2.44-.08-3.66-.11l-2.05,0-1.7,0c-1.94,0-3.88-.05-5.82-.05A365,365,0,0,0,277,793.05c-18.77-26.29-32.83-50.44-43.29-74C232.74,717,231.82,714.84,231,712.72Z"/><path class="cls-1" d="M859.76,716.31a365.45,365.45,0,0,0-61.66-434.4,368.72,368.72,0,0,0-61.78-49.77c121.55,117,147.48,246,147.83,305.81,1.11,188.41-151,343.62-339.39,346.17-131.84,1.79-247.19-71-306.49-178.69.5,1.22,1,2.42,1.51,3.64,8.88,21.11,20.6,42.39,35.56,64.74,31.24,46.68,75.42,83.55,127.48,104.64A365.87,365.87,0,0,0,798.1,798.1a369.73,369.73,0,0,0,34.54-39.85l67.06,1.67Z"/></svg>