<svg id="Layer_1" data-name="Layer 1" xmlns="http://www.w3.org/2000/svg" xmlns:xlink="http://www.w3.org/1999/xlink" viewBox="0 0 1080 1080"><defs><style>.cls-1{fill:#160f36;}.cls-2{fill:#50c8ef;}.cls-3{fill:url(#linear-gradient);}.cls-4{fill:url(#linear-gradient-2);}.cls-5{fill:url(#linear-gradient-3);}.cls-6{fill:url(#linear-gradient-4);}.cls-7{fill:url(#linear-gradient-5);}.cls-8{fill:url(#linear-gradient-6);}.cls-9{fill:url(#linear-gradient-7);}.cls-10{fill:url(#linear-gradient-8);}.cls-11{fill:url(#linear-gradient-9);}</style><linearGradient id="linear-gradient" x1="114.81" y1="461.76" x2="334.38" y2="631.42" gradientUnits="userSpaceOnUse"><stop offset="0" stop-color="#9adbf9"/><stop offset="1" stop-color="#50c8ef"/></linearGradient><linearGradient id="linear-gradient-2" x1="147.69" y1="419.2" x2="367.26" y2="588.87" xlink:href="#linear-gradient"/><linearGradient id="linear-gradient-3" x1="73.7" y1="514.97" x2="293.26" y2="684.63" xlink:href="#linear-gradient"/><linearGradient id="linear-gradient-4" x1="144.88" y1="422.85" x2="364.44" y2="592.51" xlink:href="#linear-gradient"/><linearGradient id="linear-gradient-5" x1="113" y1="464.11" x2="332.56" y2="633.77" xlink:href="#linear-gradient"/><linearGradient id="linear-gradient-6" x1="77.65" y1="509.85" x2="297.22" y2="679.51" xlink:href="#linear-gradient"/><linearGradient id="linear-gradient-7" x1="118.57" y1="456.9" x2="338.13" y2="626.56" xlink:href="#linear-gradient"/><linearGradient id="linear-gradient-8" x1="116.56" y1="459.49" x2="336.13" y2="629.15" xlink:href="#linear-gradient"/><linearGradient id="linear-gradient-9" x1="117.75" y1="457.96" x2="337.31" y2="627.62" xlink:href="#linear-gradient"/></defs><rect class="cls-1" width="1080" height="1080"/><path class="cls-2" d="M443.39,519.57q0,13.68-7.23,21.71t-18.63,8q-11.65,0-18.58-7.23t-6.93-21a36.2,36.2,0,0,1,2.2-13,24.51,24.51,0,0,1,5.95-9.34,27.32,27.32,0,0,1,8.41-5.45,25.49,25.49,0,0,1,9.71-1.9q11.83,0,18.46,7.39T443.39,519.57Zm-8.11,1.18a46.31,46.31,0,0,0-1.4-12.12,18.89,18.89,0,0,0-3.89-7.86,16,16,0,0,0-5.4-4,16.38,16.38,0,0,0-6.55-1.26,16.25,16.25,0,0,0-11.79,4.77,17.88,17.88,0,0,0-4.39,7.69,40,40,0,0,0-1.65,12.21q0,13,4.73,19.09a15.49,15.49,0,0,0,12.93,6.08,15.2,15.2,0,0,0,12.72-6.08Q435.27,533.18,435.28,520.75Z"/><path class="cls-2" d="M446,548.29V546l34.81-49.09H464.08a30.1,30.1,0,0,0-6.42.47,4.51,4.51,0,0,0-2.62,1.48q-1.19,1.61-2.19,7.18h-3.13a77.94,77.94,0,0,1-.59-9.89,3.92,3.92,0,0,1,.76-2.74,4.06,4.06,0,0,1,3-.81l7.77.05q5.49,0,10.64,0,12.93,0,20.2-.25l-.28,2.42-35,48.94H473a50.51,50.51,0,0,0,9.75-.63,6.34,6.34,0,0,0,3.76-2q1.46-1.77,3.16-7.18l3.3.17a88,88,0,0,1-.68,11.07,3.14,3.14,0,0,1-1,2.32,4.68,4.68,0,0,1-2.79.64q-2.79,0-8.36-.05c-3.72,0-7.41,0-11.07,0Q452.59,548.12,446,548.29Z"/><path class="cls-2" d="M548.4,519.57q0,13.68-7.22,21.71t-18.63,8q-11.67,0-18.59-7.23t-6.93-21a36.2,36.2,0,0,1,2.2-13,24.53,24.53,0,0,1,6-9.34,27.16,27.16,0,0,1,8.4-5.45,25.58,25.58,0,0,1,9.72-1.9q11.82,0,18.46,7.39T548.4,519.57Zm-8.11,1.18a46.77,46.77,0,0,0-1.39-12.12,19,19,0,0,0-3.89-7.86,16,16,0,0,0-5.41-4,16.32,16.32,0,0,0-6.55-1.26,16.25,16.25,0,0,0-11.78,4.77,17.78,17.78,0,0,0-4.39,7.69,40,40,0,0,0-1.65,12.21q0,13,4.73,19.09a15.47,15.47,0,0,0,12.93,6.08,15.19,15.19,0,0,0,12.71-6.08Q540.3,533.18,540.29,520.75Z"/><path class="cls-2" d="M573,548.29q-2.36-.16-9.2-.17-5.58,0-8.62.17v-3.21q5-.17,5.57-1.1c.34-.5.57-1.83.68-4q.42-13.51.42-39c0-2.2-.2-3.52-.59-4q-.93-1.1-5.83-1.27v-3.21q3,.17,7.35.17c2.82,0,4.77,0,5.84-.09l30.46,43.53.28-.16q-.17-5.93-.21-18.73T599,500.81a7.23,7.23,0,0,0-.68-3.72c-.56-.78-2.51-1.23-5.83-1.35v-3.21c1.58.11,4.39.17,8.45.17q5.74,0,8.79-.17v3.21q-4.57.18-5.41,1.18c-.28.34-.48,1.67-.59,4q-.35,10.89-.34,48.41h-4l-33.29-47.4-.25.08q.08,2.79.17,18.59t.08,19.52c0,1.91.22,3.18.68,3.8s2.56,1.13,6.16,1.18Z"/><path class="cls-2" d="M616.07,548.29v-3.21c3.1-.05,5-.42,5.75-1.1.45-.45.67-2,.67-4.56V500.05c0-1.63-.22-2.67-.67-3.13-.63-.73-2.54-1.12-5.75-1.18v-3.21q5.23.17,11.07.17,4.4,0,12.63-.09l9.84-.08a5.74,5.74,0,0,1,3,.55,2.5,2.5,0,0,1,.84,2.24,51.05,51.05,0,0,1-.93,9.12h-3c-.4-3-1.07-5.12-2-6.25s-4.14-1.77-9.55-1.77h-5.32a2.83,2.83,0,0,0-2.11.63,3.25,3.25,0,0,0-.59,2.24v18.25q6.24,0,8.28-.09c2.36-.11,3.74-.3,4.13-.59q1.7-1.18,2.37-6.25h3c-.11,1.92-.17,5-.17,9.29,0,1.36,0,3,0,4.9s0,3,0,3.3h-3.3q-.42-4.82-1.86-6c-.45-.39-1.91-.65-4.39-.76-1.18-.06-3.91-.08-8.19-.08v17.31a10.86,10.86,0,0,0,.59,4.48c.5.9,2.36,1.36,5.57,1.36h4.48c4.84,0,8-.74,9.46-2.2,1.19-1.18,2.31-3.64,3.38-7.35l3,.17q-.24,6.42-.59,9.54a4.3,4.3,0,0,1-1.18,2.88,4.85,4.85,0,0,1-3,.76l-12.17-.05-12.08,0C623.34,548.12,619.56,548.18,616.07,548.29Z"/><path class="cls-2" d="M735.7,548.29q-2.37-.16-10.47-.17c-4.57,0-7.86.06-9.89.17v-3.21c3.27-.11,5.18-.51,5.75-1.18.45-.45.67-1.72.67-3.8V521.34H695.15v18.84c0,2,.22,3.24.67,3.8s2.31,1,5.75,1.1v3.21q-2.37-.16-10.48-.17-6.84,0-9.88.17v-3.21c3.26-.11,5.18-.51,5.74-1.18.45-.45.68-1.72.68-3.8V500.73c0-2-.23-3.3-.68-3.81-.56-.67-2.48-1.06-5.74-1.18v-3.21q3,.17,9.88.17,8.11,0,10.48-.17v3.21c-3.44.12-5.35.48-5.75,1.1s-.67,1.83-.67,3.8v16.81h26.61V500.73c0-2-.22-3.3-.67-3.81-.57-.67-2.48-1.06-5.75-1.18v-3.21c2,.11,5.32.17,9.89.17q8.1,0,10.47-.17v3.21c-3.43.12-5.35.48-5.74,1.1s-.68,1.83-.68,3.8v39.54c0,2,.22,3.24.68,3.8s2.31,1,5.74,1.1Z"/><path class="cls-2" d="M742.8,548.29v-3.21c3.09-.05,5-.42,5.74-1.1.45-.45.68-2,.68-4.56V500.05c0-1.63-.23-2.67-.68-3.13q-.93-1.1-5.74-1.18v-3.21q5.24.17,11.06.17,4.39,0,12.63-.09l9.85-.08a5.76,5.76,0,0,1,3,.55,2.5,2.5,0,0,1,.84,2.24,51.05,51.05,0,0,1-.93,9.12h-3c-.39-3-1.07-5.12-2-6.25s-4.14-1.77-9.55-1.77h-5.32a2.86,2.86,0,0,0-2.12.63,3.31,3.31,0,0,0-.59,2.24v18.25q6.26,0,8.28-.09c2.37-.11,3.75-.3,4.14-.59q1.7-1.18,2.37-6.25h3c-.11,1.92-.17,5-.17,9.29,0,1.36,0,3,0,4.9s0,3,0,3.3h-3.3q-.42-4.82-1.86-6c-.45-.39-1.91-.65-4.39-.76-1.19-.06-3.92-.08-8.2-.08v17.31a11,11,0,0,0,.59,4.48c.51.9,2.37,1.36,5.58,1.36h4.48c4.84,0,8-.74,9.46-2.2,1.18-1.18,2.31-3.64,3.38-7.35l3,.17q-.25,6.42-.59,9.54a4.3,4.3,0,0,1-1.18,2.88,4.87,4.87,0,0,1-3,.76l-12.17-.05-12.08,0Q748,548.12,742.8,548.29Z"/><path class="cls-2" d="M805.21,548.29q-4-.16-10.59-.17-5.26,0-9.49.17v-3.21c2.37-.11,3.94-.45,4.73-1q1.35-1.09,2.87-5.09l17.74-46.69h5l17.48,46.13q1.69,4.47,3,5.66c.62.5,2.17.84,4.65,1v3.21q-4.39-.16-11-.17c-4.17,0-7.67.06-10.48.17v-3.21a40.69,40.69,0,0,0,4.73-.34,2.09,2.09,0,0,0,1.86-2.19,14.83,14.83,0,0,0-1.19-4.65l-3.8-10.65H803.13l-3.83,11.08a12.09,12.09,0,0,0-1.19,4.34c0,1,.71,1.66,2.12,1.93a30.75,30.75,0,0,0,5,.48Zm-.76-24.84h15.78L812.45,501l-.34.33Q810.88,505.48,804.45,523.45Z"/><path class="cls-2" d="M843.84,548.29v-3.21q4.65-.08,5.75-1.1c.45-.45.67-2,.67-4.56V500.73c0-2-.22-3.3-.67-3.81-.57-.67-2.48-1.06-5.75-1.18v-3.21q3,.17,10.14.17,7.86,0,10.22-.17v3.21c-3.43.12-5.35.48-5.74,1.1a6.71,6.71,0,0,0-.76,3.8v38c0,2.37.2,3.89.59,4.56q.84,1.18,5.07,1.19h5.49c4.84,0,8-.74,9.46-2.2q1.7-1.69,3.38-7.52l3,.17q-.24,6.67-.59,9.71a4.3,4.3,0,0,1-1.18,2.88,4.87,4.87,0,0,1-3,.76l-12.42-.05-12.34,0C851.11,548.12,847.33,548.18,843.84,548.29Z"/><path class="cls-2" d="M916.42,548.29q-2.37-.16-11.07-.17-7,0-10.06.17v-3.21c3.61-.11,5.66-.48,6.17-1.1s.68-1.8.68-3.88V499.29a3.46,3.46,0,0,0-.55-2.28,2.5,2.5,0,0,0-1.9-.59h-4.48c-3.66,0-5.91.5-6.76,1.52s-1.72,3.52-2.45,7.52h-2.79q-.42-4.9-.42-9.8a4,4,0,0,1,.55-2.45,2.45,2.45,0,0,1,2-.68l9.64,0q6.84,0,10.81,0t10.69,0l9.59,0a3,3,0,0,1,2.28.68,3.32,3.32,0,0,1,.59,2.19,90.17,90.17,0,0,1-.76,10.06h-2.87c-.46-3.94-1.16-6.45-2.12-7.52s-3-1.52-6.08-1.52h-5.24a2,2,0,0,0-1.69.63,3.68,3.68,0,0,0-.5,2.24v40.89c0,2,.19,3.24.59,3.8a2.48,2.48,0,0,0,1.48.72,40.27,40.27,0,0,0,4.69.38Z"/><path class="cls-2" d="M989.24,548.29q-2.37-.16-10.47-.17c-4.57,0-7.86.06-9.89.17v-3.21c3.27-.11,5.18-.51,5.75-1.18.45-.45.67-1.72.67-3.8V521.34H948.69v18.84c0,2,.22,3.24.68,3.8s2.3,1,5.74,1.1v3.21q-2.37-.16-10.48-.17-6.84,0-9.88.17v-3.21c3.27-.11,5.18-.51,5.74-1.18.46-.45.68-1.72.68-3.8V500.73c0-2-.22-3.3-.68-3.81q-.84-1-5.74-1.18v-3.21q3,.17,9.88.17,8.11,0,10.48-.17v3.21c-3.44.12-5.35.48-5.74,1.1s-.68,1.83-.68,3.8v16.81H975.3V500.73c0-2-.22-3.3-.67-3.81-.57-.67-2.48-1.06-5.75-1.18v-3.21c2,.11,5.32.17,9.89.17q8.1,0,10.47-.17v3.21c-3.43.12-5.35.48-5.74,1.1s-.68,1.83-.68,3.8v39.54c0,2,.23,3.24.68,3.8s2.31,1,5.74,1.1Z"/><path class="cls-2" d="M433.4,591.54c-.68,0-2.19-.08-4.53-.08-2,0-3.4,0-4.28.08v-1.39c1.41,0,2.24-.22,2.49-.52a2.78,2.78,0,0,0,.29-1.64v-8.12H415.85V588a3,3,0,0,0,.29,1.64q.25.41,2.49.48v1.39c-.68,0-2.19-.08-4.53-.08-2,0-3.4,0-4.28.08v-1.39c1.41,0,2.24-.22,2.48-.52s.3-.74.3-1.64V571a2.78,2.78,0,0,0-.3-1.64c-.24-.3-1.07-.47-2.48-.52V567.4c.88.05,2.3.08,4.28.08,2.34,0,3.85,0,4.53-.08v1.39q-2.24.08-2.49.48a3,3,0,0,0-.29,1.64v7.28h11.52V571a2.89,2.89,0,0,0-.29-1.64c-.25-.3-1.08-.47-2.49-.52V567.4c.88.05,2.3.08,4.28.08,2.34,0,3.85,0,4.53-.08v1.39c-1.49.05-2.31.21-2.48.48a2.89,2.89,0,0,0-.3,1.64V588a2.89,2.89,0,0,0,.3,1.64c.17.27,1,.43,2.48.48Z"/><path class="cls-2" d="M465.4,590.7a5.83,5.83,0,0,1-3.48,1.28c-1.44,0-2.18-1-2.23-3l-.11,0a4.4,4.4,0,0,1-1.84,2.27,5.68,5.68,0,0,1-3.06.81,5,5,0,0,1-3.93-1.43,4.68,4.68,0,0,1-1.26-3.18,3.6,3.6,0,0,1,2.08-3.55,15.28,15.28,0,0,1,6.59-1.13q.76,0,1.17,0v-1.57a7.89,7.89,0,0,0-.44-3.07c-.54-1-1.61-1.54-3.22-1.54a8.37,8.37,0,0,0-4.35,1.25l-.66-.92a6.58,6.58,0,0,1,2.52-1.93,8.17,8.17,0,0,1,3.59-.81,5.58,5.58,0,0,1,4.53,1.76,6.15,6.15,0,0,1,1,4c0,1,0,2.13-.05,3.55s-.06,2.57-.06,3.47a4.88,4.88,0,0,0,.44,2.34,1.09,1.09,0,0,0,1,.58,7.79,7.79,0,0,0,1.5-.11Zm-6.07-4v-2.6h-.41a12.79,12.79,0,0,0-4.86.7,2.31,2.31,0,0,0-1.46,2.27,2.7,2.7,0,0,0,3,2.74,3.87,3.87,0,0,0,3-1.1A2.87,2.87,0,0,0,459.33,586.71Z"/><path class="cls-2" d="M488.8,600.42c-.66,0-2.19-.07-4.57-.07-1.66,0-2.93,0-3.81.07v-1.35a4.16,4.16,0,0,0,2.09-.4q.33-.3.33-1.8V580.38a5.39,5.39,0,0,0-.52-2.92,3.87,3.87,0,0,0-1.86-1.17v-.73a6.58,6.58,0,0,1,3.55-1.14c.95,0,1.47.66,1.57,2,.05.58.07,1.21.07,1.86l.11,0a4.65,4.65,0,0,1,2-3,6.36,6.36,0,0,1,3.66-1.13,6,6,0,0,1,4.93,2.19,9.68,9.68,0,0,1,1.8,6.29q0,4.53-2.18,6.84a7.53,7.53,0,0,1-5.72,2.3,6,6,0,0,1-4.5-1.61c0,.61,0,1.8,0,3.57s0,2.82,0,3.16q0,1.35.36,1.68a5,5,0,0,0,2.64.48Zm-3-14.84a6,6,0,0,0,.4,2.34c.58,1.46,1.94,2.19,4.06,2.19a4.06,4.06,0,0,0,3.44-1.66,8.3,8.3,0,0,0,1.24-5q0-6.87-4.72-6.87a4.05,4.05,0,0,0-4,2.3,5.69,5.69,0,0,0-.4,2.45Z"/><path class="cls-2" d="M522.44,600.42c-.66,0-2.19-.07-4.58-.07-1.65,0-2.92,0-3.8.07v-1.35a4.16,4.16,0,0,0,2.09-.4,3,3,0,0,0,.33-1.8V580.38a5.49,5.49,0,0,0-.52-2.92,3.87,3.87,0,0,0-1.86-1.17v-.73a6.58,6.58,0,0,1,3.55-1.14c1,0,1.47.66,1.57,2,0,.58.07,1.21.07,1.86l.11,0a4.61,4.61,0,0,1,2-3,6.36,6.36,0,0,1,3.66-1.13,6,6,0,0,1,4.93,2.19,9.68,9.68,0,0,1,1.8,6.29q0,4.53-2.18,6.84a7.53,7.53,0,0,1-5.72,2.3,6,6,0,0,1-4.5-1.61c0,.61,0,1.8,0,3.57s0,2.82,0,3.16q0,1.35.36,1.68a5,5,0,0,0,2.64.48Zm-3-14.84a6,6,0,0,0,.4,2.34c.58,1.46,1.94,2.19,4.06,2.19a4,4,0,0,0,3.43-1.66,8.22,8.22,0,0,0,1.25-5q0-6.87-4.72-6.87a4.05,4.05,0,0,0-4,2.3,5.69,5.69,0,0,0-.4,2.45Z"/><path class="cls-2" d="M556.07,591.54c-.65,0-2.09-.08-4.31-.08-1.54,0-2.74,0-3.62.08v-1.36a4.39,4.39,0,0,0,2.16-.4c.19-.17.29-.74.29-1.72v-8a5.19,5.19,0,0,0-.37-2.41,3.69,3.69,0,0,0-1.93-1.32v-.77a9.76,9.76,0,0,1,4.13-1.13q1.2,0,1.2,2c0,.22,0,1.05,0,2.5s0,2.41,0,2.87v6.4a2.84,2.84,0,0,0,.29,1.65,5.77,5.77,0,0,0,2.23.36Zm-2.34-23a2.07,2.07,0,0,1-.58,1.54,2,2,0,0,1-1.5.59,2,2,0,0,1-1.46-.57,2,2,0,0,1-.59-1.52,2.09,2.09,0,0,1,.6-1.57,2.11,2.11,0,0,1,1.52-.59,2,2,0,0,1,1.45.57A2.13,2.13,0,0,1,553.73,568.57Z"/><path class="cls-2" d="M580.21,591.54c-.69,0-2.1-.08-4.25-.08-1.53,0-2.74,0-3.62.08v-1.36a4.65,4.65,0,0,0,2.16-.4c.2-.17.29-.74.29-1.72v-7.68a5.52,5.52,0,0,0-.51-2.92,3.87,3.87,0,0,0-1.86-1.17v-.73a6.5,6.5,0,0,1,3.51-1.14c.92,0,1.46.66,1.61,2,0,.29,0,.89,0,1.79l.11,0a4.9,4.9,0,0,1,1.94-2.93,6.47,6.47,0,0,1,3.91-1.13,5,5,0,0,1,3.18.93,4.53,4.53,0,0,1,1.58,2.43,15.5,15.5,0,0,1,.25,3.29v7.35a2.84,2.84,0,0,0,.29,1.65,5.79,5.79,0,0,0,2.24.36v1.36c-.66,0-2-.08-4.1-.08-1.61,0-2.85,0-3.73.08v-1.36a4.08,4.08,0,0,0,2.08-.4,3.17,3.17,0,0,0,.26-1.72v-7.24a5.83,5.83,0,0,0-.58-3,3,3,0,0,0-2.75-1.24q-3.06,0-4.13,2.3a5.74,5.74,0,0,0-.36,2.16v7.09a2.76,2.76,0,0,0,.29,1.65,5.47,5.47,0,0,0,2.16.36Z"/><path class="cls-2" d="M621.6,589.05a8.22,8.22,0,0,1-6.37,2.93,7.47,7.47,0,0,1-5.94-2.38,9.52,9.52,0,0,1-2.06-6.47,9.09,9.09,0,0,1,2.3-6.62,7.57,7.57,0,0,1,5.67-2.38,5.92,5.92,0,0,1,4.62,1.76,6.86,6.86,0,0,1,1.59,4.79,3.9,3.9,0,0,1-.22,1.39l-.47.29H610.3q0,3.92,1.66,5.57a5.51,5.51,0,0,0,4,1.67,8.79,8.79,0,0,0,4.83-1.46Zm-11.16-8.23h7.94a6.16,6.16,0,0,0,0-.84q0-4.17-3.41-4.17a4.07,4.07,0,0,0-3.23,1.32A6.23,6.23,0,0,0,610.44,580.82Z"/><path class="cls-2" d="M638,586.67l1.2-.14a5.55,5.55,0,0,0,1.47,2.74,4,4,0,0,0,3,1.1,3.71,3.71,0,0,0,2.5-.72,2.32,2.32,0,0,0,.83-1.85,2.14,2.14,0,0,0-.75-1.68,15,15,0,0,0-3.05-1.76l-1.11-.54c-2.38-1.12-3.58-2.72-3.58-4.79a4.51,4.51,0,0,1,1.56-3.49c1-.94,2.7-1.41,5-1.41a7,7,0,0,1,3.29.62,1.57,1.57,0,0,1,.84,1.5,16.56,16.56,0,0,1-.29,2.85h-1.21a6.24,6.24,0,0,0-1-2.59,3.29,3.29,0,0,0-2.37-.7,3.78,3.78,0,0,0-2.44.68,2.26,2.26,0,0,0-.82,1.83,2.07,2.07,0,0,0,.7,1.62,9.55,9.55,0,0,0,2.5,1.44l1.28.62a9.13,9.13,0,0,1,3.31,2.34,4.31,4.31,0,0,1,.88,2.7,4.5,4.5,0,0,1-1.63,3.51,6.91,6.91,0,0,1-4.7,1.43,7,7,0,0,1-4.31-1,2.9,2.9,0,0,1-.95-2.05A19.82,19.82,0,0,1,638,586.67Z"/><path class="cls-2" d="M666.35,586.67l1.21-.14a5.46,5.46,0,0,0,1.46,2.74,4,4,0,0,0,3,1.1,3.74,3.74,0,0,0,2.51-.72,2.35,2.35,0,0,0,.82-1.85,2.14,2.14,0,0,0-.75-1.68,14.68,14.68,0,0,0-3-1.76l-1.1-.54q-3.58-1.68-3.58-4.79a4.5,4.5,0,0,1,1.55-3.49q1.56-1.41,5-1.41a7,7,0,0,1,3.29.62,1.57,1.57,0,0,1,.84,1.5,15.62,15.62,0,0,1-.29,2.85H676a6.41,6.41,0,0,0-1-2.59,3.33,3.33,0,0,0-2.38-.7,3.76,3.76,0,0,0-2.43.68,2.24,2.24,0,0,0-.82,1.83,2.09,2.09,0,0,0,.69,1.62,9.73,9.73,0,0,0,2.5,1.44l1.28.62a9.19,9.19,0,0,1,3.32,2.34,4.36,4.36,0,0,1,.87,2.7,4.47,4.47,0,0,1-1.63,3.51,6.9,6.9,0,0,1-4.69,1.43,7,7,0,0,1-4.32-1,2.9,2.9,0,0,1-.95-2.05C666.39,588.2,666.35,587.45,666.35,586.67Z"/><path class="cls-2" d="M723.83,591.54c-.66,0-2.1-.08-4.32-.08-1.53,0-2.74,0-3.62.08v-1.36a4.32,4.32,0,0,0,2.16-.4c.2-.17.29-.74.29-1.72v-8a5.37,5.37,0,0,0-.36-2.41,3.72,3.72,0,0,0-1.94-1.32v-.77a9.79,9.79,0,0,1,4.13-1.13c.81,0,1.21.67,1.21,2,0,.22,0,1.05,0,2.5s0,2.41,0,2.87v6.4a2.76,2.76,0,0,0,.29,1.65,5.72,5.72,0,0,0,2.23.36Zm-2.34-23a2.08,2.08,0,0,1-.59,1.54,2.05,2.05,0,0,1-3.54-1.5,2,2,0,0,1,2.12-2.16,2,2,0,0,1,1.44.57A2.1,2.1,0,0,1,721.49,568.57Z"/><path class="cls-2" d="M740.28,586.67l1.21-.14a5.54,5.54,0,0,0,1.46,2.74,4,4,0,0,0,3,1.1,3.74,3.74,0,0,0,2.51-.72,2.32,2.32,0,0,0,.82-1.85,2.14,2.14,0,0,0-.75-1.68,14.81,14.81,0,0,0-3-1.76l-1.11-.54q-3.58-1.68-3.58-4.79a4.54,4.54,0,0,1,1.55-3.49q1.56-1.41,5-1.41a7,7,0,0,1,3.29.62,1.57,1.57,0,0,1,.85,1.5,15.71,15.71,0,0,1-.3,2.85h-1.2a6.54,6.54,0,0,0-1-2.59,3.32,3.32,0,0,0-2.38-.7,3.76,3.76,0,0,0-2.43.68,2.24,2.24,0,0,0-.82,1.83,2.07,2.07,0,0,0,.7,1.62,9.46,9.46,0,0,0,2.49,1.44l1.28.62a9.1,9.1,0,0,1,3.32,2.34A4.36,4.36,0,0,1,752,587a4.49,4.49,0,0,1-1.62,3.51,6.93,6.93,0,0,1-4.7,1.43,7,7,0,0,1-4.32-1,2.9,2.9,0,0,1-1-2.05C740.32,588.2,740.28,587.45,740.28,586.67Z"/><path class="cls-2" d="M813.37,591.54c-.68,0-2.19-.08-4.53-.08-2,0-3.4,0-4.28.08v-1.39c1.42,0,2.24-.22,2.49-.52a2.78,2.78,0,0,0,.29-1.64v-8.12H795.82V588a2.89,2.89,0,0,0,.3,1.64c.17.27,1,.43,2.48.48v1.39c-.68,0-2.19-.08-4.53-.08-2,0-3.4,0-4.28.08v-1.39c1.41,0,2.24-.22,2.49-.52a2.78,2.78,0,0,0,.29-1.64V571a2.89,2.89,0,0,0-.29-1.64c-.25-.3-1.08-.47-2.49-.52V567.4c.88.05,2.3.08,4.28.08,2.34,0,3.85,0,4.53-.08v1.39c-1.49.05-2.31.21-2.48.48a2.89,2.89,0,0,0-.3,1.64v7.28h11.52V571a2.89,2.89,0,0,0-.29-1.64c-.25-.3-1.07-.47-2.49-.52V567.4c.88.05,2.31.08,4.28.08,2.34,0,3.85,0,4.53-.08v1.39c-1.48.05-2.31.21-2.48.48a2.92,2.92,0,0,0-.29,1.64V588a2.92,2.92,0,0,0,.29,1.64c.17.27,1,.43,2.48.48Z"/><path class="cls-2" d="M844.27,589.05a8.19,8.19,0,0,1-6.36,2.93A7.44,7.44,0,0,1,832,589.6a9.52,9.52,0,0,1-2.07-6.47,9.13,9.13,0,0,1,2.3-6.62,7.58,7.58,0,0,1,5.67-2.38,5.93,5.93,0,0,1,4.63,1.76,6.86,6.86,0,0,1,1.59,4.79,4.14,4.14,0,0,1-.22,1.39l-.48.29H833q0,3.92,1.67,5.57a5.48,5.48,0,0,0,4,1.67,8.78,8.78,0,0,0,4.82-1.46Zm-11.15-8.23h7.93a4.81,4.81,0,0,0,0-.84q0-4.17-3.4-4.17a4.08,4.08,0,0,0-3.24,1.32A6.23,6.23,0,0,0,833.12,580.82Z"/><path class="cls-2" d="M875.9,590.7a5.8,5.8,0,0,1-3.47,1.28c-1.44,0-2.19-1-2.23-3l-.11,0a4.47,4.47,0,0,1-1.85,2.27,5.65,5.65,0,0,1-3,.81,5,5,0,0,1-3.93-1.43,4.65,4.65,0,0,1-1.27-3.18,3.59,3.59,0,0,1,2.09-3.55,15.2,15.2,0,0,1,6.58-1.13q.76,0,1.17,0v-1.57a7.89,7.89,0,0,0-.44-3.07c-.54-1-1.61-1.54-3.22-1.54a8.37,8.37,0,0,0-4.35,1.25l-.66-.92a6.62,6.62,0,0,1,2.53-1.93,8.13,8.13,0,0,1,3.58-.81,5.55,5.55,0,0,1,4.53,1.76c.69.78,1,2.12,1,4,0,1,0,2.13-.06,3.55s0,2.57,0,3.47a4.76,4.76,0,0,0,.44,2.34,1.08,1.08,0,0,0,1,.58,7.79,7.79,0,0,0,1.5-.11Zm-6.07-4v-2.6h-.4a12.81,12.81,0,0,0-4.87.7,2.31,2.31,0,0,0-1.46,2.27,2.86,2.86,0,0,0,.73,1.9,2.8,2.8,0,0,0,2.23.84,3.9,3.9,0,0,0,3-1.1A2.86,2.86,0,0,0,869.83,586.71Z"/><path class="cls-2" d="M898.79,591.54c-.9,0-2.33-.08-4.28-.08-1.54,0-2.74,0-3.62.08v-1.36a4.22,4.22,0,0,0,2.12-.4c.2-.15.29-.72.29-1.72V571a8.32,8.32,0,0,0-.29-3.07,3.76,3.76,0,0,0-2-1.25v-.76a9.42,9.42,0,0,1,4.13-1.25c.81,0,1.21.66,1.21,2,0,.41,0,2.26,0,5.54s0,5.44,0,6.49v9.5q0,1.4.33,1.65a4.9,4.9,0,0,0,2.2.36Z"/><path class="cls-2" d="M925,590.44A5.91,5.91,0,0,1,920.8,592a3.31,3.31,0,0,1-3.15-1.47,9,9,0,0,1-.62-4.09q0-3.84.08-9.62h-2.67v-1.17a5,5,0,0,0,2.63-1.39,9,9,0,0,0,1-3.87H920v4.46h4.2v2H920v9.58c0,1.56.19,2.54.55,2.93a2,2,0,0,0,1.65.62,5.33,5.33,0,0,0,2.23-.55Z"/><path class="cls-2" d="M947.71,591.54c-.68,0-2.1-.08-4.24-.08-1.54,0-2.74,0-3.62.08v-1.36a4.94,4.94,0,0,0,2.16-.4c.19-.15.29-.72.29-1.72V571a8,8,0,0,0-.33-3.07,3.76,3.76,0,0,0-2-1.25v-.76a9.72,9.72,0,0,1,4.13-1.25c.83,0,1.24.66,1.24,2q0,6.76-.25,11.4l.11,0a4.92,4.92,0,0,1,2-2.78,6.63,6.63,0,0,1,3.88-1.13q3.81,0,4.68,3.36a15.1,15.1,0,0,1,.26,3.26v7.38c0,.93.09,1.48.29,1.65a5.72,5.72,0,0,0,2.23.36v1.36c-.66,0-2-.08-4.1-.08-1.61,0-2.85,0-3.73.08v-1.36a4.16,4.16,0,0,0,2.09-.4c.17-.17.25-.74.25-1.72V580.9a6.3,6.3,0,0,0-.54-3,2.92,2.92,0,0,0-2.75-1.24,5.1,5.1,0,0,0-2.74.71,3.73,3.73,0,0,0-1.5,1.59,6.54,6.54,0,0,0-.29,2v7.24a2.84,2.84,0,0,0,.29,1.65,5.47,5.47,0,0,0,2.16.36Z"/><path class="cls-3" d="M209.09,570.61a6.63,6.63,0,0,1,4.16-2.08,7.9,7.9,0,0,1,6,1.88l28.26,21.85a22.92,22.92,0,0,0,16.56,5.39c15.17-1.29,20.62-16.82,11-30.29l-16.88-25.87c-3.19-6.08-2.45-10.29-.17-12.48l58,81.75a114,114,0,0,1-30.12,26.66Z"/><path class="cls-4" d="M258.16,528.9a7.34,7.34,0,0,1,8-.93,8.51,8.51,0,0,1,3.14,2.57L292,559.68a23.82,23.82,0,0,0,13.61,8.76c10.15,2.24,16.6-3.57,20.61-14.74,6.93-22.4,5-24.1,6.45-42.31.34-4.26,3.55-3.63,4.58.52l.21.85A114.16,114.16,0,0,1,318.9,607Z"/><path class="cls-5" d="M179.2,638.71c7.9.41,16.3,3.46,34.87,5.33a47.93,47.93,0,0,0,17.12-1.44c16.48-5.23,16.59-20.63,10-30.26l-31.06-31.51c-3.21-4.3-3-8-1.06-10.18l72.7,69.19a115.5,115.5,0,0,1-30.47,11.57A114.09,114.09,0,0,1,176,642.7C171.78,640.67,174.56,638.47,179.2,638.71Z"/><circle class="cls-6" cx="307.5" cy="548.51" r="10.7"/><circle class="cls-7" cx="260.2" cy="577.85" r="10.7"/><circle class="cls-8" cx="220.46" cy="620.2" r="10.7"/><path class="cls-9" d="M115.87,564.33a6,6,0,0,0,4.09-3.41l17,6.64a4.3,4.3,0,0,0,2.21,4.87l-4.39,13.34a4.91,4.91,0,1,0-1,9.65L135.05,607h0a2.45,2.45,0,1,0,3,1.81,1.91,1.91,0,0,0-.13-.36l9.4-5.31a3.84,3.84,0,0,0,3.8,1.19l.15,0,3.52,9.52a3.86,3.86,0,0,0,2.51,7.27,2.22,2.22,0,0,0,.39-.12l4.91,10.22a3.86,3.86,0,1,0,1-.41,2.81,2.81,0,0,0-.49.16l-4.91-10.2a3.88,3.88,0,0,0,1.93-4.31,3.92,3.92,0,0,0-.73-1.49l13.48-12.38a3.86,3.86,0,1,0-1.19-3.35l-17.73.57a.36.36,0,0,0,0-.1,3.86,3.86,0,1,0-7.51,1.82,4.1,4.1,0,0,0,.52,1.19l-9.33,5.26a2.45,2.45,0,0,0-2-1l-1.25-11.53.34-.07a4.9,4.9,0,0,0,3.64-5.8l20.3-5.66a4.91,4.91,0,0,0,9.42-2.74,4.82,4.82,0,0,0-.46-1.18l18.72-11.51a4.91,4.91,0,1,0,2.87-7.59c-.2.05-.38.11-.56.17l-17.47-39.46a6.09,6.09,0,0,0,2.58-2.76l30.88,19a6,6,0,0,0-.59,4.37,6.1,6.1,0,1,0,7.8-7.23l6-21.78a6,6,0,0,0,6.33-3.31l22.6,6.59a3.25,3.25,0,0,0,0,1.42,3.3,3.3,0,1,0,3.74-4l.94-12.31h.07a1.42,1.42,0,0,0,1-1.71,1.44,1.44,0,0,0-.9-1L253,481.17a5.91,5.91,0,0,0,1.61-.16c.13,0,.26-.08.38-.12l9.69,19.16a2.2,2.2,0,1,0,.73-.34l-.21.08-9.66-19.1a6,6,0,0,0,2.59-2.06l29.19,18.91a5.21,5.21,0,0,0,.08,2,5.12,5.12,0,0,0,9.95-2.41,4.94,4.94,0,0,0-.38-1l7.69-8.64a1.68,1.68,0,0,0,1.27.2,1.65,1.65,0,0,0,1.11-.91l14.85,4.14a4.13,4.13,0,0,0,0,1.88,4.3,4.3,0,1,0,.12-2.44l-14.85-4.14a1.46,1.46,0,0,0,0-.55,1.67,1.67,0,0,0-1.75-1.27l-5-19.67a7.14,7.14,0,1,0-3.37.17l-4.21,28.38a5,5,0,0,0-1.67.12,3.86,3.86,0,0,0-.68.22l-11.05-23.81a3.74,3.74,0,0,0-2.12-7.17,3.82,3.82,0,0,0-1,.41l-11-23.65a6.09,6.09,0,1,0-4.45.48l-6.63,29.24a6.22,6.22,0,0,0-2.5.07,6.13,6.13,0,0,0-1.76.74L237.06,451a2.19,2.19,0,0,0-1.95-3.78,2.15,2.15,0,0,0-.5.19l-11-16.16a6.1,6.1,0,1,0-9.6-3.43h0l-41.53,12.25a3.4,3.4,0,0,0-.07-.34,4.31,4.31,0,1,0-3.31,5.23l6.8,23.63a7.88,7.88,0,0,0-5,9.27,7.76,7.76,0,0,0,2.23,3.86l-5.76,7.2a2.11,2.11,0,0,0-1.51-.2,1.52,1.52,0,0,0-.2.06L157.18,468a2.51,2.51,0,1,0-.57.22h0l8.49,20.88a2.13,2.13,0,0,0,1.72,3.82,2.14,2.14,0,0,0,1.57-2.57,2.09,2.09,0,0,0-.59-1l5.72-7.17a7.89,7.89,0,1,0,3.15-13.77l-.28.08-6.8-23.6a4.33,4.33,0,0,0,2.87-4.16l41.65-12.27a6.09,6.09,0,0,0,2.35,3.05L202,455.34a6.09,6.09,0,1,0,2.08,8.85L222.77,476a3.71,3.71,0,0,0-.34,2.63,4,4,0,0,0,.64,1.36l-23.19,20.25a6.69,6.69,0,0,0-5.13-2.07L194.14,485a1.8,1.8,0,0,0,.32-.06,3.21,3.21,0,1,0-.9.09l.61,13.26a5.89,5.89,0,0,0-.71.13,6.69,6.69,0,1,0,8.09,4.93,6.62,6.62,0,0,0-1.29-2.6l23.2-20.26a3.73,3.73,0,0,0,6.35-2.75L247.13,476a5.12,5.12,0,0,0,.1.54,6.1,6.1,0,0,0,5.17,4.61l-1.33,17.52a.91.91,0,0,0-.23,0,1.41,1.41,0,0,0,0,2.75l-.94,12.28a3,3,0,0,0-.73.09,3.28,3.28,0,0,0-2.3,2l-22.52-6.56a6.1,6.1,0,1,0-7.15,3.73l-5.93,21.73a6.1,6.1,0,0,0-6.35,2.52l-31-19a6.09,6.09,0,0,0-9-7.19l-23.39-27.2a8.92,8.92,0,1,0-5.75,2.34l2.53,39.57-.24,0a3.12,3.12,0,0,0-1.93,1.41l-14.66-7a6,6,0,0,0,.32-3.81,6.1,6.1,0,1,0-4.49,7.36,6,6,0,0,0,3.92-3l14.66,7a3.08,3.08,0,0,0,.73,3.26l-18.64,22.64a6,6,0,1,0-2.19,10.72Zm55.75,35.41a3.58,3.58,0,0,0,.1.85,3.81,3.81,0,0,0,.73,1.48L159,614.46a3.85,3.85,0,0,0-3.55-.94l-.15.05L151.76,604A3.86,3.86,0,0,0,154,600.3Zm126-134.8a7,7,0,0,0,2.23-.11l5,19.67a1.66,1.66,0,0,0-.62,2.56l-7.56,8.49a5.17,5.17,0,0,0-3.26-2.23Zm-36.2-25a6,6,0,0,0,2.5-.08,6.31,6.31,0,0,0,.87-.28l11,23.74a3.74,3.74,0,0,0,3,6.56l11.1,23.91a5.13,5.13,0,0,0-2.51,3.12l-29-18.79a6.09,6.09,0,0,0-3.64-8.94Zm-31.66,37.16a1.7,1.7,0,0,0,0-.22,3.74,3.74,0,0,0-6.64-1.36l-18.7-11.85a6.07,6.07,0,0,0-1.89-8.06L217,431.74a6,6,0,0,0,4.34.57,5.84,5.84,0,0,0,1.76-.73l11,16.17a2.18,2.18,0,0,0-.65,2.12,2.2,2.2,0,0,0,2.65,1.62,2.09,2.09,0,0,0,.44-.16l12.9,18.89a6.08,6.08,0,0,0-2.41,5.18Zm-62.43,102.3a4.9,4.9,0,0,0-8.81,3.84l-20.3,5.66a4.89,4.89,0,0,0-2.84-3l4.37-13.3a4.36,4.36,0,0,0,2.46.13,4.31,4.31,0,0,0,3.17-5.21,3.61,3.61,0,0,0-.25-.72l15.18-7.5a6.09,6.09,0,0,0,10.93-.57l14.44,5.36a4.93,4.93,0,0,0-.08,2.59,5.08,5.08,0,0,0,.45,1.16Zm20.8-18.21a4.88,4.88,0,0,0-2.25,2.39l-14.44-5.36a6,6,0,0,0,.12-3.28,6.09,6.09,0,0,0-6.15-4.66l.58-28.46a6.15,6.15,0,0,0,3.69.27,8.25,8.25,0,0,0,1-.34Zm-51.68-75.1a9.13,9.13,0,0,0,1.24-.2,8.94,8.94,0,0,0,3.49-1.73l23.36,27.16a6.08,6.08,0,0,0,.88,10.24l-.59,28.77q-.31,0-.63.12a6.08,6.08,0,0,0-2.84,1.58l-20.4-21a3.08,3.08,0,0,0-2-5.37Zm.71,45.21a3.06,3.06,0,0,0,2.46.46,3.24,3.24,0,0,0,.87-.38L161,552.49a6.09,6.09,0,0,0-1.26,5.35,6.53,6.53,0,0,0,.34,1l-15.18,7.5a4.32,4.32,0,0,0-7.68.66l-17-6.62a6.07,6.07,0,0,0-1.67-6.4Z"/><path class="cls-10" d="M111,602.56c-.19-.46-.36-.93-.57-1.37-5.09-11.1-8-25.44-10.63-41.81-.22-1.37-.41-2.73-.57-4.11,0-.1,0-.2,0-.3-.13-1.07-.24-2.15-.34-3.23-.26-2.92-.4-5.62-.48-8,0-.6,0-1.19,0-1.78,0-.29,0-.58,0-.87,0-.47,0-.92,0-1.34.11-68.41,55.92-124.27,124.32-124.44a124.34,124.34,0,0,1,93.89,42.39c-.29-.45-.59-.9-.89-1.34l-.16-.24-.58-.83c-.09-.15-.2-.3-.31-.46l-.27-.38c-.3-.43-.62-.86-.93-1.28,0,0,0,0,0,0l-.08-.1c-.27-.38-.55-.75-.83-1.11-.06-.09-.13-.17-.19-.25l-.1-.14a.52.52,0,0,0-.1-.11l-.06-.09-.2-.26c-.26-.34-.53-.68-.8-1s-.67-.84-1-1.25l-.15-.18h0l0,0-.24-.29c-.22-.28-.45-.54-.68-.81l-.27-.31,0,0-.92-1.05a.27.27,0,0,0-.07-.08l-.51-.57c-.31-.35-.62-.7-.94-1l-.76-.81c-.1-.12-.21-.23-.31-.34l-.38-.39c-.2-.21-.39-.42-.59-.62l-.23-.23h0l-.58-.59-.05-.05-.87-.87-.44-.44-.64-.61h0a1.57,1.57,0,0,0-.19-.18l-.45-.43-.69-.65c-.22-.21-.44-.42-.68-.62l-.66-.62.55.52a112.77,112.77,0,0,0-71.46-29.67l-1.32,0h-.74l-.62,0H223a132.19,132.19,0,0,0-95.26,223.84A153.37,153.37,0,0,1,112,604.86C111.67,604.09,111.34,603.32,111,602.56Z"/><path class="cls-11" d="M338.76,603.85a132.37,132.37,0,0,0-22.33-157.32,133.18,133.18,0,0,0-22.38-18c44,42.37,53.41,89.11,53.54,110.76.4,68.23-54.69,124.45-122.92,125.37a124.71,124.71,0,0,1-111-64.72c.18.44.36.88.55,1.32a138.78,138.78,0,0,0,12.88,23.45,101.72,101.72,0,0,0,46.17,37.9,132.54,132.54,0,0,0,143.16-29.1A134.11,134.11,0,0,0,328.94,619l24.28.61Z"/></svg>