<svg id="Layer_1" data-name="Layer 1" xmlns="http://www.w3.org/2000/svg" viewBox="0 0 1080 1080"><defs><style>.cls-1{fill:#fff;}.cls-2{fill:#50c8ef;}</style></defs><rect class="cls-1" width="1080" height="1080"/><path class="cls-2" d="M183.66,502q0,19.72-10.41,31.29T146.4,544.87q-16.8,0-26.78-10.41t-10-30.26a52.12,52.12,0,0,1,3.17-18.69,35.46,35.46,0,0,1,8.58-13.46,39.09,39.09,0,0,1,12.12-7.85,36.54,36.54,0,0,1,14-2.74q17,0,26.6,10.66T183.66,502ZM172,503.71a67.39,67.39,0,0,0-2-17.47q-2-7.37-5.61-11.32a22.91,22.91,0,0,0-7.79-5.79,23.41,23.41,0,0,0-9.44-1.82,23.3,23.3,0,0,0-17,6.88c-2.64,2.47-4.75,6.17-6.33,11.07a57.51,57.51,0,0,0-2.38,17.6q0,18.75,6.82,27.52t18.63,8.77q11.56,0,18.33-8.77T172,503.71Z"/><path class="cls-2" d="M187.44,543.41v-3.29l50.16-70.75H213.49a43.91,43.91,0,0,0-9.25.67,6.53,6.53,0,0,0-3.78,2.14q-1.69,2.31-3.16,10.35h-4.51a112.83,112.83,0,0,1-.85-14.25,5.7,5.7,0,0,1,1.1-4c.73-.77,2.15-1.15,4.26-1.15s5.92,0,11.2.06,10.39.06,15.34.06q18.63,0,29.11-.37l-.41,3.49L202.07,537h24.28q10.11,0,14.06-.91t5.42-2.86q2.08-2.56,4.56-10.35l4.75.24a126.4,126.4,0,0,1-1,15.95,4.55,4.55,0,0,1-1.46,3.35,6.8,6.8,0,0,1-4,.92q-4,0-12.05-.06t-15.95-.07Q196.94,543.16,187.44,543.41Z"/><path class="cls-2" d="M335,502q0,19.72-10.41,31.29t-26.85,11.57q-16.8,0-26.79-10.41T261,504.2a52.34,52.34,0,0,1,3.17-18.69,35.46,35.46,0,0,1,8.58-13.46,39.09,39.09,0,0,1,12.12-7.85,36.54,36.54,0,0,1,14-2.74q17,0,26.6,10.66T335,502Zm-11.69,1.7a66.93,66.93,0,0,0-2-17.47q-2-7.37-5.6-11.32a22.91,22.91,0,0,0-7.79-5.79,23.41,23.41,0,0,0-9.44-1.82,24.6,24.6,0,0,0-8.89,1.58,24.88,24.88,0,0,0-8.09,5.3c-2.64,2.47-4.75,6.17-6.33,11.07a57.51,57.51,0,0,0-2.38,17.6q0,18.75,6.82,27.52t18.63,8.77q11.56,0,18.33-8.77T323.32,503.71Z"/><path class="cls-2" d="M370.44,543.41q-3.4-.24-13.27-.25-8,0-12.42.25v-4.63q7.19-.24,8-1.58c.48-.73.81-2.64,1-5.73q.62-19.47.61-56.25c0-3.17-.28-5.07-.85-5.72q-1.35-1.59-8.4-1.83V463q4.38.25,10.59.25c4.06,0,6.87,0,8.41-.12L408,525.9l.4-.24q-.24-8.53-.3-27T408,475c0-2.6-.33-4.38-1-5.36q-1.22-1.71-8.4-1.95V463q3.4.25,12.18.25,8.28,0,12.66-.25v4.63q-6.57.24-7.79,1.7-.62.74-.85,5.73-.5,15.7-.49,69.77h-5.72l-48-68.31-.37.12q.12,4,.24,26.79t.12,28.13c0,2.76.32,4.58,1,5.48s3.69,1.62,8.88,1.7Z"/><path class="cls-2" d="M432.54,543.41v-4.63c4.46-.08,7.23-.61,8.28-1.58q1-1,1-6.58V473.88c0-2.35-.33-3.85-1-4.51q-1.33-1.58-8.28-1.7V463q7.54.25,15.95.25,6.33,0,18.21-.12t14.18-.13a8.24,8.24,0,0,1,4.26.8c.81.52,1.22,1.6,1.22,3.22A73.88,73.88,0,0,1,485,480.21h-4.26q-.86-6.57-2.92-9t-13.76-2.56h-7.67a4.09,4.09,0,0,0-3.05.92,4.71,4.71,0,0,0-.85,3.22v26.31q9,0,11.93-.13,5.12-.24,6-.85,2.43-1.69,3.41-9h4.38q-.24,4.14-.24,13.39,0,2.92.06,7.07c0,2.76.06,4.34.06,4.75h-4.75c-.4-4.63-1.3-7.51-2.68-8.65q-1-.86-6.33-1.09c-1.7-.08-5.64-.13-11.81-.13v25q0,4.88.85,6.46,1.09,1.95,8,1.95h6.45q10.47,0,13.64-3.17c1.7-1.7,3.33-5.24,4.87-10.59l4.38.24q-.36,9.26-.85,13.76c-.24,2-.81,3.41-1.7,4.14a7,7,0,0,1-4.39,1.1q-5.12,0-17.53-.06t-17.41-.07Q440.09,543.16,432.54,543.41Z"/><path class="cls-2" d="M605,543.41q-3.42-.24-15.1-.25-9.87,0-14.25.25v-4.63q7.07-.24,8.28-1.7,1-1,1-5.48v-27H546.51v27.15c0,2.84.32,4.67,1,5.48s3.32,1.42,8.27,1.58v4.63q-3.4-.24-15.09-.25-9.87,0-14.25.25v-4.63q7.07-.24,8.28-1.7,1-1,1-5.48V474.86c0-2.93-.32-4.75-1-5.49q-1.22-1.46-8.28-1.7V463q4.38.25,14.25.25,11.69,0,15.09-.25v4.63q-7.43.24-8.27,1.58c-.66.82-1,2.64-1,5.48V499h38.36v-24.1c0-2.93-.33-4.75-1-5.49q-1.21-1.46-8.28-1.7V463q4.38.25,14.25.25,11.68,0,15.1-.25v4.63q-7.43.24-8.28,1.58c-.65.82-1,2.64-1,5.48v57q0,4.26,1,5.48t8.28,1.58Z"/><path class="cls-2" d="M615.18,543.41v-4.63q6.71-.12,8.28-1.58,1-1,1-6.58V473.88c0-2.35-.33-3.85-1-4.51q-1.34-1.58-8.28-1.7V463c5,.17,10.35.25,16,.25q6.32,0,18.2-.12t14.19-.13a8.29,8.29,0,0,1,4.26.8c.81.52,1.21,1.6,1.21,3.22a73,73,0,0,1-1.34,13.15H663.4q-.85-6.57-2.92-9t-13.76-2.56h-7.67a4,4,0,0,0-3,.92,4.71,4.71,0,0,0-.86,3.22v26.31q9,0,11.94-.13,5.1-.24,6-.85,2.43-1.69,3.41-9h4.39q-.26,4.14-.25,13.39,0,2.92.06,7.07c0,2.76.06,4.34.06,4.75H656c-.41-4.63-1.31-7.51-2.68-8.65q-1-.86-6.34-1.09c-1.7-.08-5.64-.13-11.81-.13v25q0,4.88.86,6.46,1.1,1.95,8,1.95h6.45q10.49,0,13.64-3.17c1.71-1.7,3.33-5.24,4.87-10.59l4.39.24q-.37,9.26-.85,13.76-.37,3-1.71,4.14a7,7,0,0,1-4.38,1.1q-5.12,0-17.54-.06t-17.41-.07Q622.74,543.16,615.18,543.41Z"/><path class="cls-2" d="M705.14,543.41q-5.71-.24-15.26-.25-7.61,0-13.68.25v-4.63q5.12-.24,6.82-1.47c1.29-1.06,2.67-3.5,4.13-7.34l25.57-67.29h7.18l25.21,66.48q2.43,6.45,4.26,8.16,1.33,1.09,6.7,1.46v4.63q-6.35-.24-15.83-.25-9,0-15.1.25v-4.63a59.94,59.94,0,0,0,6.82-.49,3,3,0,0,0,2.68-3.16,21.35,21.35,0,0,0-1.71-6.7l-5.48-15.34H702.14l-5.52,16a17.58,17.58,0,0,0-1.72,6.25q0,2.21,3.06,2.79a43.73,43.73,0,0,0,7.18.69Zm-1.1-35.8h22.74l-11.21-32.39-.48.48Q713.31,481.7,704,507.61Z"/><path class="cls-2" d="M760.81,543.41v-4.63q6.71-.12,8.29-1.58c.64-.65,1-2.84,1-6.58V474.86c0-2.93-.33-4.75-1-5.49q-1.23-1.46-8.29-1.7V463q4.4.25,14.62.25,11.33,0,14.73-.25v4.63q-7.42.24-8.28,1.58c-.73,1-1.1,2.8-1.1,5.48v54.8q0,5.12.86,6.57,1.22,1.71,7.3,1.71h7.92q10.47,0,13.63-3.17,2.44-2.43,4.87-10.84l4.39.25q-.37,9.62-.85,14-.37,3-1.71,4.14a7,7,0,0,1-4.38,1.1q-5.12,0-17.9-.06t-17.78-.07Q768.37,543.16,760.81,543.41Z"/><path class="cls-2" d="M865.41,543.41q-3.4-.24-15.95-.25-10.11,0-14.49.25v-4.63c5.19-.16,8.16-.69,8.89-1.58q1-1.1,1-5.6V472.78a4.94,4.94,0,0,0-.79-3.28,3.62,3.62,0,0,0-2.74-.86h-6.45q-7.92,0-9.75,2.2t-3.53,10.83h-4q-.62-7.05-.61-14.12a5.76,5.76,0,0,1,.79-3.53,3.52,3.52,0,0,1,2.86-1c2.68,0,7.3,0,13.88.06s11.77.07,15.59.07,8.95,0,15.4-.07,11.06-.06,13.82-.06c1.62,0,2.72.33,3.29,1a4.8,4.8,0,0,1,.85,3.16,131.17,131.17,0,0,1-1.1,14.49h-4.14q-1-8.52-3-10.83t-8.77-2.2h-7.55a2.93,2.93,0,0,0-2.43.92,5.28,5.28,0,0,0-.73,3.22v58.94q0,4.26.85,5.48a3.64,3.64,0,0,0,2.13,1,56.61,56.61,0,0,0,6.76.55Z"/><path class="cls-2" d="M970.37,543.41q-3.42-.24-15.1-.25c-6.58,0-11.32.09-14.25.25v-4.63q7.07-.24,8.29-1.7c.64-.65,1-2.48,1-5.48v-27H911.92v27.15q0,4.26,1,5.48t8.28,1.58v4.63q-3.42-.24-15.1-.25c-6.58,0-11.32.09-14.25.25v-4.63q7.06-.24,8.28-1.7,1-1,1-5.48V474.86c0-2.93-.33-4.75-1-5.49q-1.22-1.46-8.28-1.7V463c2.93.17,7.67.25,14.25.25q11.68,0,15.1-.25v4.63q-7.44.24-8.28,1.58c-.65.82-1,2.64-1,5.48V499h38.36v-24.1c0-2.93-.33-4.75-1-5.49q-1.23-1.46-8.29-1.7V463c2.93.17,7.67.25,14.25.25q11.68,0,15.1-.25v4.63q-7.43.24-8.28,1.58c-.65.82-1,2.64-1,5.48v57q0,4.26,1,5.48t8.28,1.58Z"/><path class="cls-2" d="M169.27,605.73q-1.47-.11-6.53-.1c-2.85,0-4.9,0-6.17.1v-2c2-.07,3.24-.32,3.59-.74a4,4,0,0,0,.42-2.37v-11.7H144v11.75a4.34,4.34,0,0,0,.42,2.38c.25.38,1.44.61,3.59.68v2q-1.49-.11-6.54-.1c-2.85,0-4.9,0-6.17.1v-2c2-.07,3.24-.32,3.59-.74a4,4,0,0,0,.42-2.37V576.07a4.18,4.18,0,0,0-.42-2.38c-.35-.42-1.55-.66-3.59-.73v-2c1.27.07,3.32.11,6.17.11q5.06,0,6.54-.11v2c-2.15.07-3.34.29-3.59.68A4.3,4.3,0,0,0,144,576V586.5h16.6V576.07a4.18,4.18,0,0,0-.42-2.38c-.35-.42-1.55-.66-3.59-.73v-2c1.27.07,3.32.11,6.17.11q5.06,0,6.53-.11v2c-2.14.07-3.33.29-3.58.68a4.3,4.3,0,0,0-.42,2.37v24.66a4.34,4.34,0,0,0,.42,2.38c.25.38,1.44.61,3.58.68Z"/><path class="cls-2" d="M215.39,604.52a8.36,8.36,0,0,1-5,1.85c-2.07,0-3.15-1.46-3.22-4.38l-.15,0a6.46,6.46,0,0,1-2.66,3.27,8.24,8.24,0,0,1-4.41,1.16q-3.84,0-5.66-2.06a6.76,6.76,0,0,1-1.82-4.58,5.17,5.17,0,0,1,3-5.12c2.17-1.08,5.34-1.63,9.48-1.63.74,0,1.3,0,1.69,0v-2.26a11.13,11.13,0,0,0-.64-4.43q-1.16-2.21-4.63-2.21a12.09,12.09,0,0,0-6.27,1.79l-.95-1.32a9.52,9.52,0,0,1,3.63-2.79,11.89,11.89,0,0,1,5.17-1.16q4.43,0,6.53,2.53c1,1.12,1.48,3.06,1.48,5.8,0,1.37,0,3.07-.08,5.11s-.08,3.7-.08,5a7.06,7.06,0,0,0,.63,3.38,1.57,1.57,0,0,0,1.37.84,11.62,11.62,0,0,0,2.16-.16Zm-8.75-5.74V595h-.58a18.33,18.33,0,0,0-7,1,3.31,3.31,0,0,0-2.11,3.27,3.89,3.89,0,0,0,4.27,4,5.58,5.58,0,0,0,4.37-1.58A4.18,4.18,0,0,0,206.64,598.78Z"/><path class="cls-2" d="M249.11,618.54q-1.43-.1-6.59-.11c-2.39,0-4.21,0-5.48.11v-1.95c1.65-.07,2.65-.26,3-.58s.47-1.14.47-2.58V589.66c0-2.14-.25-3.55-.74-4.22a5.62,5.62,0,0,0-2.68-1.68V582.7a9.57,9.57,0,0,1,5.11-1.63c1.37,0,2.12.95,2.26,2.85.07.84.11,1.74.11,2.68l.16.06a6.62,6.62,0,0,1,2.89-4.32,9.08,9.08,0,0,1,5.27-1.64,8.7,8.7,0,0,1,7.12,3.16q2.58,3.17,2.58,9.07,0,6.52-3.13,9.85a10.83,10.83,0,0,1-8.25,3.32,8.63,8.63,0,0,1-6.48-2.32c0,.88,0,2.59,0,5.14s0,4.07,0,4.56c0,1.3.17,2.11.53,2.42s1.65.62,3.79.69Zm-4.32-21.4a8.64,8.64,0,0,0,.58,3.38c.84,2.1,2.79,3.16,5.85,3.16a5.82,5.82,0,0,0,5-2.4c1.2-1.6,1.79-4,1.79-7.14q0-9.9-6.79-9.91-4.23,0-5.8,3.32a8.2,8.2,0,0,0-.58,3.53Z"/><path class="cls-2" d="M297.59,618.54c-.95-.07-3.14-.11-6.59-.11-2.39,0-4.21,0-5.48.11v-1.95c1.65-.07,2.66-.26,3-.58s.47-1.14.47-2.58V589.66c0-2.14-.24-3.55-.74-4.22a5.57,5.57,0,0,0-2.68-1.68V582.7a9.57,9.57,0,0,1,5.11-1.63c1.37,0,2.12.95,2.26,2.85.07.84.11,1.74.11,2.68l.16.06a6.6,6.6,0,0,1,2.9-4.32,9.05,9.05,0,0,1,5.26-1.64,8.7,8.7,0,0,1,7.12,3.16q2.58,3.17,2.58,9.07,0,6.52-3.13,9.85a10.81,10.81,0,0,1-8.25,3.32,8.63,8.63,0,0,1-6.48-2.32c0,.88,0,2.59,0,5.14s0,4.07,0,4.56c0,1.3.18,2.11.53,2.42s1.65.62,3.79.69Zm-4.32-21.4a8.64,8.64,0,0,0,.58,3.38c.84,2.1,2.79,3.16,5.85,3.16a5.82,5.82,0,0,0,4.95-2.4c1.2-1.6,1.79-4,1.79-7.14q0-9.9-6.79-9.91c-2.81,0-4.75,1.11-5.8,3.32a8.2,8.2,0,0,0-.58,3.53Z"/><path class="cls-2" d="M346.07,605.73q-1.43-.11-6.22-.1c-2.21,0-4,0-5.21.1v-2c1.72-.07,2.75-.26,3.11-.58s.42-1.07.42-2.47v-11.6a7.65,7.65,0,0,0-.53-3.47,5.43,5.43,0,0,0-2.79-1.9v-1.11A14,14,0,0,1,340.8,581c1.16,0,1.74,1,1.74,2.9,0,.31,0,1.52-.05,3.61s-.05,3.47-.05,4.13v9.23a4,4,0,0,0,.42,2.37,8.26,8.26,0,0,0,3.21.52Zm-3.37-33.09a3,3,0,0,1-.84,2.21,3,3,0,0,1-5.12-2.16,3,3,0,0,1,.87-2.26,3,3,0,0,1,2.19-.85,2.83,2.83,0,0,1,2.08.82A3,3,0,0,1,342.7,572.64Z"/><path class="cls-2" d="M380.85,605.73q-1.47-.11-6.11-.1c-2.21,0-3.95,0-5.22.1v-2a6.64,6.64,0,0,0,3.11-.58c.28-.24.42-1.07.42-2.47V589.66c0-2.14-.24-3.55-.73-4.22a5.66,5.66,0,0,0-2.69-1.68V582.7a9.52,9.52,0,0,1,5.06-1.63c1.33,0,2.1.95,2.32,2.85,0,.42.05,1.28.05,2.58l.16,0a6.93,6.93,0,0,1,2.79-4.21,9.24,9.24,0,0,1,5.64-1.64,7.12,7.12,0,0,1,4.58,1.35,6.48,6.48,0,0,1,2.27,3.5,22.45,22.45,0,0,1,.37,4.74v10.6a4,4,0,0,0,.42,2.37,8.36,8.36,0,0,0,3.21.52v2c-.95-.07-2.91-.1-5.9-.1-2.32,0-4.11,0-5.37.1v-2c1.65-.07,2.65-.26,3-.58s.37-1.07.37-2.47V590.29a8.43,8.43,0,0,0-.84-4.27c-.74-1.19-2.06-1.79-4-1.79q-4.43,0-5.95,3.32a8.15,8.15,0,0,0-.53,3.11v10.23a4,4,0,0,0,.42,2.37,8,8,0,0,0,3.11.52Z"/><path class="cls-2" d="M440.51,602.15a11.82,11.82,0,0,1-9.17,4.22q-5.59,0-8.57-3.43t-3-9.33q0-6.11,3.32-9.53a10.89,10.89,0,0,1,8.16-3.43q4.38,0,6.67,2.53a9.89,9.89,0,0,1,2.29,6.9,5.68,5.68,0,0,1-.31,2l-.69.43h-15c0,3.76.8,6.43,2.4,8a7.93,7.93,0,0,0,5.82,2.4,12.59,12.59,0,0,0,7-2.11Zm-16.08-11.86h11.44a9.19,9.19,0,0,0,.05-1.21c0-4-1.63-6-4.9-6a5.87,5.87,0,0,0-4.66,1.9A8.93,8.93,0,0,0,424.43,590.29Z"/><path class="cls-2" d="M464.11,598.73l1.74-.22a8,8,0,0,0,2.11,4,5.8,5.8,0,0,0,4.27,1.58,5.44,5.44,0,0,0,3.61-1,3.38,3.38,0,0,0,1.18-2.67,3.13,3.13,0,0,0-1.07-2.43,21.64,21.64,0,0,0-4.4-2.53l-1.59-.78q-5.16-2.42-5.16-6.9a6.49,6.49,0,0,1,2.24-5q2.23-2,7.19-2a10,10,0,0,1,4.74.9,2.24,2.24,0,0,1,1.22,2.16,23.45,23.45,0,0,1-.42,4.11H478a9.17,9.17,0,0,0-1.43-3.74,4.72,4.72,0,0,0-3.42-1,5.48,5.48,0,0,0-3.51,1,3.24,3.24,0,0,0-1.18,2.65,3,3,0,0,0,1,2.34,14.35,14.35,0,0,0,3.6,2.07l1.85.89a13.15,13.15,0,0,1,4.78,3.37,6.27,6.27,0,0,1,1.26,3.89,6.49,6.49,0,0,1-2.35,5.06q-2.34,2.06-6.77,2.06c-2.92,0-5-.5-6.22-1.48a4.2,4.2,0,0,1-1.37-2.95C464.17,600.92,464.11,599.85,464.11,598.73Z"/><path class="cls-2" d="M505,598.73l1.74-.22a8,8,0,0,0,2.1,4,5.8,5.8,0,0,0,4.27,1.58,5.42,5.42,0,0,0,3.61-1,3.39,3.39,0,0,0,1.19-2.67,3.11,3.11,0,0,0-1.08-2.43,21.48,21.48,0,0,0-4.39-2.53l-1.59-.78q-5.17-2.42-5.17-6.9a6.52,6.52,0,0,1,2.24-5q2.24-2,7.19-2a10,10,0,0,1,4.75.9,2.23,2.23,0,0,1,1.21,2.16,23.45,23.45,0,0,1-.42,4.11h-1.74a9.19,9.19,0,0,0-1.42-3.74,4.75,4.75,0,0,0-3.43-1,5.47,5.47,0,0,0-3.5,1,3.25,3.25,0,0,0-1.19,2.65,3,3,0,0,0,1,2.34,14.35,14.35,0,0,0,3.6,2.07l1.84.89a13.06,13.06,0,0,1,4.78,3.37,6.27,6.27,0,0,1,1.26,3.89,6.48,6.48,0,0,1-2.34,5.06q-2.35,2.06-6.78,2.06c-2.91,0-5-.5-6.21-1.48a4.16,4.16,0,0,1-1.37-2.95A30,30,0,0,1,505,598.73Z"/><path class="cls-2" d="M587.85,605.73c-1-.07-3-.1-6.22-.1-2.22,0-4,0-5.22.1v-2c1.72-.07,2.76-.26,3.11-.58s.42-1.07.42-2.47v-11.6a7.51,7.51,0,0,0-.53-3.47,5.34,5.34,0,0,0-2.79-1.9v-1.11a14,14,0,0,1,6-1.63c1.16,0,1.74,1,1.74,2.9,0,.31,0,1.52-.06,3.61s0,3.47,0,4.13v9.23a4,4,0,0,0,.42,2.37,8.38,8.38,0,0,0,3.22.52Zm-3.38-33.09a3,3,0,0,1-.84,2.21,2.89,2.89,0,0,1-2.16.85,2.94,2.94,0,0,1-2.11-.82,2.9,2.9,0,0,1-.84-2.19,3,3,0,0,1,.87-2.26,3,3,0,0,1,2.19-.85,2.85,2.85,0,0,1,2.08.82A3,3,0,0,1,584.47,572.64Z"/><path class="cls-2" d="M611.56,598.73l1.74-.22a8,8,0,0,0,2.11,4,5.77,5.77,0,0,0,4.27,1.58,5.44,5.44,0,0,0,3.61-1,3.38,3.38,0,0,0,1.18-2.67,3.11,3.11,0,0,0-1.08-2.43,21.48,21.48,0,0,0-4.39-2.53l-1.59-.78q-5.16-2.42-5.16-6.9a6.49,6.49,0,0,1,2.24-5q2.24-2,7.19-2a10,10,0,0,1,4.74.9,2.23,2.23,0,0,1,1.21,2.16,23.45,23.45,0,0,1-.42,4.11h-1.74a9,9,0,0,0-1.42-3.74,4.75,4.75,0,0,0-3.43-1,5.47,5.47,0,0,0-3.5,1,3.25,3.25,0,0,0-1.19,2.65,3,3,0,0,0,1,2.34,14.35,14.35,0,0,0,3.6,2.07l1.84.89a13.06,13.06,0,0,1,4.78,3.37,6.27,6.27,0,0,1,1.26,3.89,6.48,6.48,0,0,1-2.34,5.06c-1.57,1.37-3.82,2.06-6.77,2.06s-5-.5-6.22-1.48a4.16,4.16,0,0,1-1.37-2.95A30,30,0,0,1,611.56,598.73Z"/><path class="cls-2" d="M716.9,605.73q-1.47-.11-6.53-.1c-2.85,0-4.9,0-6.17.1v-2c2-.07,3.23-.32,3.59-.74a4,4,0,0,0,.42-2.37v-11.7h-16.6v11.75a4.34,4.34,0,0,0,.42,2.38c.25.38,1.44.61,3.58.68v2q-1.47-.11-6.53-.1c-2.85,0-4.9,0-6.17.1v-2c2-.07,3.23-.32,3.59-.74a4,4,0,0,0,.42-2.37V576.07a4.18,4.18,0,0,0-.42-2.38c-.36-.42-1.55-.66-3.59-.73v-2c1.27.07,3.32.11,6.17.11q5.05,0,6.53-.11v2c-2.14.07-3.33.29-3.58.68a4.3,4.3,0,0,0-.42,2.37V586.5h16.6V576.07a4.18,4.18,0,0,0-.42-2.38c-.36-.42-1.55-.66-3.59-.73v-2c1.27.07,3.32.11,6.17.11q5.05,0,6.53-.11v2c-2.14.07-3.34.29-3.58.68a4.3,4.3,0,0,0-.42,2.37v24.66a4.34,4.34,0,0,0,.42,2.38c.24.38,1.44.61,3.58.68Z"/><path class="cls-2" d="M761.43,602.15a11.79,11.79,0,0,1-9.17,4.22c-3.72,0-6.58-1.15-8.56-3.43s-3-5.39-3-9.33,1.11-7.25,3.32-9.53a10.91,10.91,0,0,1,8.17-3.43c2.91,0,5.14.84,6.67,2.53a9.94,9.94,0,0,1,2.29,6.9,5.67,5.67,0,0,1-.32,2l-.68.43h-15c0,3.76.8,6.43,2.4,8a7.89,7.89,0,0,0,5.82,2.4,12.53,12.53,0,0,0,7-2.11Zm-16.07-11.86h11.43a7.19,7.19,0,0,0,.06-1.21c0-4-1.64-6-4.9-6a5.89,5.89,0,0,0-4.67,1.9A8.86,8.86,0,0,0,745.36,590.29Z"/><path class="cls-2" d="M807,604.52a8.33,8.33,0,0,1-5,1.85c-2.07,0-3.15-1.46-3.22-4.38l-.15,0a6.43,6.43,0,0,1-2.67,3.27,8.17,8.17,0,0,1-4.39,1.16q-3.86,0-5.67-2.06a6.76,6.76,0,0,1-1.82-4.58,5.17,5.17,0,0,1,3-5.12c2.17-1.08,5.34-1.63,9.48-1.63.74,0,1.3,0,1.69,0v-2.26a11.13,11.13,0,0,0-.64-4.43q-1.15-2.21-4.63-2.21a12.09,12.09,0,0,0-6.27,1.79l-1-1.32a9.52,9.52,0,0,1,3.63-2.79,11.89,11.89,0,0,1,5.17-1.16q4.42,0,6.53,2.53c1,1.12,1.48,3.06,1.48,5.8,0,1.37,0,3.07-.08,5.11s-.08,3.7-.08,5a7.06,7.06,0,0,0,.63,3.38,1.57,1.57,0,0,0,1.37.84,11.62,11.62,0,0,0,2.16-.16Zm-8.74-5.74V595h-.58a18.33,18.33,0,0,0-7,1,3.31,3.31,0,0,0-2.11,3.27,3.89,3.89,0,0,0,4.27,4,5.6,5.6,0,0,0,4.37-1.58A4.13,4.13,0,0,0,798.27,598.78Z"/><path class="cls-2" d="M840,605.73q-1.95-.11-6.16-.1c-2.22,0-4,0-5.22.1v-2c1.69-.07,2.7-.26,3.06-.58s.42-1,.42-2.47V576.12c0-2.53-.14-4-.42-4.43a5.45,5.45,0,0,0-2.9-1.79v-1.11a13.59,13.59,0,0,1,6-1.79q1.74,0,1.74,2.85c0,.59,0,3.26-.05,8s0,7.84,0,9.35v13.71c0,1.33.15,2.12.47,2.37s1.37.45,3.16.52Z"/><path class="cls-2" d="M877.84,604.15a8.49,8.49,0,0,1-6.11,2.22c-2.22,0-3.73-.71-4.54-2.11q-.88-1.47-.89-5.9,0-5.54.1-13.86h-3.84v-1.69a7.23,7.23,0,0,0,3.79-2q.95-1.21,1.48-5.59h2.68v6.43h6.06v2.85h-6v13.8c0,2.25.26,3.66.79,4.22a2.88,2.88,0,0,0,2.37.89,7.5,7.5,0,0,0,3.21-.79Z"/><path class="cls-2" d="M910.51,605.73q-1.47-.11-6.11-.1c-2.22,0-3.95,0-5.22.1v-2a7,7,0,0,0,3.11-.58c.28-.21.42-1,.42-2.47V576.12c0-2.43-.16-3.9-.47-4.43a5.45,5.45,0,0,0-2.9-1.79v-1.11a14.12,14.12,0,0,1,5.95-1.79c1.2,0,1.79,1,1.79,2.85q0,9.75-.36,16.44l.15.05a7.11,7.11,0,0,1,3-4,9.41,9.41,0,0,1,5.58-1.64q5.48,0,6.75,4.85a22.11,22.11,0,0,1,.37,4.69v10.65q0,2,.42,2.37a8.26,8.26,0,0,0,3.21.52v2c-.95-.07-2.91-.1-5.9-.1-2.32,0-4.11,0-5.38.1v-2c1.66-.07,2.66-.26,3-.58a4.61,4.61,0,0,0,.37-2.47V590.4a9.06,9.06,0,0,0-.79-4.38c-.71-1.19-2-1.79-4-1.79a7.33,7.33,0,0,0-4,1,5.23,5.23,0,0,0-2.16,2.29,9.22,9.22,0,0,0-.42,2.9v10.44a4,4,0,0,0,.42,2.37,7.94,7.94,0,0,0,3.11.52Z"/></svg>