<svg id="Layer_1" data-name="Layer 1" xmlns="http://www.w3.org/2000/svg" viewBox="0 0 1080 1080"><defs><style>.cls-1,.cls-6,.cls-7,.cls-8{fill:#fff;}.cls-2,.cls-9{fill:#160f36;}.cls-3,.cls-4,.cls-5{fill:#50c8ef;}.cls-4{font-size:77.63px;}.cls-4,.cls-5,.cls-6,.cls-7,.cls-8,.cls-9{font-family:Carrara-Regular;}.cls-5{font-size:29.06px;}.cls-6{font-size:106.52px;}.cls-7{font-size:84.49px;}.cls-8,.cls-9{font-size:37.77px;}</style></defs><rect class="cls-1" width="1080" height="1080"/><path class="cls-2" d="M433.65,159.42q0,13.68-7.22,21.71t-18.63,8q-11.66,0-18.59-7.22t-6.93-21a36.41,36.41,0,0,1,2.2-13,24.48,24.48,0,0,1,6-9.33,26.92,26.92,0,0,1,8.4-5.45,25.39,25.39,0,0,1,9.72-1.9q11.82,0,18.46,7.39T433.65,159.42Zm-8.11,1.18a46.44,46.44,0,0,0-1.39-12.12,19,19,0,0,0-3.89-7.86,15.77,15.77,0,0,0-5.41-4,16.13,16.13,0,0,0-6.54-1.27,16.21,16.21,0,0,0-11.79,4.78,17.84,17.84,0,0,0-4.39,7.68A40,40,0,0,0,390.48,160q0,13,4.73,19.1a15.49,15.49,0,0,0,12.93,6.08,15.2,15.2,0,0,0,12.71-6.08Q425.55,173,425.54,160.6Z"/><path class="cls-2" d="M436.27,188.15v-2.28l34.81-49.09H454.35a30.28,30.28,0,0,0-6.42.46,4.56,4.56,0,0,0-2.62,1.48c-.79,1.07-1.52,3.47-2.2,7.18H440a76,76,0,0,1-.59-9.88,4,4,0,0,1,.76-2.75,4.08,4.08,0,0,1,2.95-.8q2.28,0,7.78,0c3.66,0,7.2,0,10.64,0q12.93,0,20.19-.25l-.28,2.42-35,48.95h16.84A49.33,49.33,0,0,0,473,183a6.33,6.33,0,0,0,3.76-2c1-1.18,2-3.58,3.17-7.18l3.29.17a87.75,87.75,0,0,1-.67,11.06,3.17,3.17,0,0,1-1,2.33,4.73,4.73,0,0,1-2.78.63q-2.79,0-8.37,0c-3.72,0-7.4,0-11.06,0Q442.86,188,436.27,188.15Z"/><path class="cls-2" d="M538.67,159.42q0,13.68-7.23,21.71t-18.63,8q-11.65,0-18.58-7.22t-6.93-21a36.2,36.2,0,0,1,2.2-13,24.47,24.47,0,0,1,5.95-9.33,27,27,0,0,1,8.41-5.45,25.31,25.31,0,0,1,9.71-1.9q11.83,0,18.46,7.39T538.67,159.42Zm-8.11,1.18a46.41,46.41,0,0,0-1.4-12.12,19,19,0,0,0-3.89-7.86,15.83,15.83,0,0,0-5.4-4,16.22,16.22,0,0,0-6.55-1.27,17.19,17.19,0,0,0-6.17,1.1,17.36,17.36,0,0,0-5.62,3.68,17.84,17.84,0,0,0-4.39,7.68A40,40,0,0,0,495.49,160q0,13,4.73,19.1a15.52,15.52,0,0,0,12.93,6.08,15.23,15.23,0,0,0,12.72-6.08Q530.55,173,530.56,160.6Z"/><path class="cls-2" d="M563.25,188.15c-1.58-.12-4.65-.17-9.21-.17-3.72,0-6.59.05-8.62.17v-3.21c3.33-.12,5.18-.48,5.58-1.1s.56-1.83.67-4q.44-13.53.43-39c0-2.19-.2-3.52-.59-4-.62-.73-2.57-1.15-5.83-1.26v-3.21c2,.11,4.48.16,7.35.16s4.76,0,5.83-.08L589.33,176l.28-.17q-.17-5.93-.21-18.72t-.13-16.44a7.2,7.2,0,0,0-.67-3.72q-.86-1.19-5.83-1.35v-3.21c1.57.11,4.39.16,8.44.16q5.74,0,8.79-.16v3.21q-4.56.17-5.41,1.18c-.28.34-.48,1.66-.59,4q-.33,10.91-.33,48.41h-4l-33.28-47.4-.26.09q.09,2.78.17,18.58t.09,19.52c0,1.92.22,3.18.67,3.8s2.56,1.13,6.17,1.19Z"/><path class="cls-2" d="M606.34,188.15v-3.21c3.09-.06,5-.43,5.74-1.1.45-.45.68-2,.68-4.57V139.9c0-1.63-.23-2.67-.68-3.12-.62-.73-2.53-1.13-5.74-1.18v-3.21q5.24.17,11.06.16,4.4,0,12.63-.08c5.5-.06,8.78-.08,9.85-.08a5.82,5.82,0,0,1,3,.54,2.49,2.49,0,0,1,.85,2.24,51.07,51.07,0,0,1-.93,9.13h-3c-.39-3-1.07-5.13-2-6.25s-4.13-1.78-9.54-1.78H622.9a2.86,2.86,0,0,0-2.12.63,3.32,3.32,0,0,0-.59,2.24v18.25q6.25,0,8.28-.08c2.37-.11,3.75-.31,4.14-.59,1.13-.79,1.91-2.88,2.37-6.25h3q-.16,2.86-.17,9.29c0,1.35,0,3,0,4.9s0,3,0,3.29h-3.29q-.42-4.81-1.86-6c-.45-.39-1.92-.64-4.39-.76q-1.78-.08-8.2-.08v17.32a11.08,11.08,0,0,0,.59,4.48q.76,1.35,5.58,1.35h4.48q7.26,0,9.46-2.2,1.77-1.77,3.38-7.35l3,.17c-.17,4.28-.37,7.47-.59,9.55A4.27,4.27,0,0,1,645,187.3a4.82,4.82,0,0,1-3.05.76q-3.54,0-12.16,0t-12.08,0C613.6,188,609.83,188,606.34,188.15Z"/><path class="cls-2" d="M726,188.15c-1.58-.12-5.07-.17-10.48-.17-4.56,0-7.86.05-9.88.17v-3.21c3.26-.12,5.18-.51,5.74-1.19.45-.45.68-1.72.68-3.8V161.19H685.41V180c0,2,.23,3.24.68,3.81s2.31,1,5.75,1.1v3.21c-1.58-.12-5.07-.17-10.48-.17-4.56,0-7.86.05-9.89.17v-3.21c3.27-.12,5.19-.51,5.75-1.19.45-.45.68-1.72.68-3.8V140.58c0-2-.23-3.29-.68-3.8q-.84-1-5.75-1.18v-3.21q3,.17,9.89.16,8.11,0,10.48-.16v3.21q-5.16.17-5.75,1.09c-.45.57-.68,1.83-.68,3.81v16.81H712V140.58c0-2-.23-3.29-.68-3.8-.56-.68-2.48-1.07-5.74-1.18v-3.21c2,.11,5.32.16,9.88.16q8.12,0,10.48-.16v3.21c-3.44.11-5.35.47-5.75,1.09s-.67,1.83-.67,3.81V180c0,2,.22,3.24.67,3.81s2.31,1,5.75,1.1Z"/><path class="cls-2" d="M733.06,188.15v-3.21q4.65-.09,5.75-1.1c.45-.45.67-2,.67-4.57V139.9c0-1.63-.22-2.67-.67-3.12-.62-.73-2.54-1.13-5.75-1.18v-3.21q5.24.17,11.07.16,4.39,0,12.63-.08c5.49-.06,8.77-.08,9.84-.08a5.84,5.84,0,0,1,3,.54,2.52,2.52,0,0,1,.85,2.24,52,52,0,0,1-.93,9.13h-3c-.4-3-1.07-5.13-2-6.25s-4.14-1.78-9.55-1.78h-5.32a2.83,2.83,0,0,0-2.11.63,3.32,3.32,0,0,0-.59,2.24v18.25q6.26,0,8.28-.08c2.36-.11,3.74-.31,4.14-.59,1.12-.79,1.91-2.88,2.36-6.25h3c-.12,1.91-.17,5-.17,9.29,0,1.35,0,3,0,4.9s0,3,0,3.29h-3.29q-.43-4.81-1.86-6c-.45-.39-1.92-.64-4.4-.76q-1.77-.08-8.19-.08v17.32a11.08,11.08,0,0,0,.59,4.48q.76,1.35,5.58,1.35h4.47c4.85,0,8-.73,9.47-2.2q1.77-1.77,3.38-7.35l3,.17c-.17,4.28-.37,7.47-.59,9.55a4.27,4.27,0,0,1-1.19,2.87,4.79,4.79,0,0,1-3,.76q-3.54,0-12.16,0t-12.09,0C740.33,188,736.55,188,733.06,188.15Z"/><path class="cls-2" d="M795.48,188.15c-2.65-.12-6.18-.17-10.59-.17-3.51,0-6.68.05-9.49.17v-3.21c2.36-.12,3.94-.46,4.73-1q1.35-1.11,2.87-5.1l17.74-46.69h5l17.49,46.13c1.13,3,2.11,4.87,3,5.66.62.51,2.17.85,4.64,1v3.21c-2.93-.12-6.59-.17-11-.17-4.17,0-7.66.05-10.48.17v-3.21a46.65,46.65,0,0,0,4.74-.34,2.1,2.1,0,0,0,1.85-2.2,14.86,14.86,0,0,0-1.18-4.65L811,167.11H793.4l-3.83,11.07a12.26,12.26,0,0,0-1.2,4.34c0,1,.71,1.67,2.13,1.93a29.14,29.14,0,0,0,5,.49Zm-.76-24.84h15.77l-7.77-22.48-.34.34Q801.15,145.32,794.72,163.31Z"/><path class="cls-2" d="M834.11,188.15v-3.21q4.65-.09,5.74-1.1c.45-.45.68-2,.68-4.57V140.58c0-2-.23-3.29-.68-3.8q-.84-1-5.74-1.18v-3.21q3,.17,10.14.16c5.24,0,8.64-.05,10.22-.16v3.21q-5.16.17-5.74,1.09a6.73,6.73,0,0,0-.77,3.81v38c0,2.37.2,3.89.6,4.57q.84,1.18,5.07,1.18h5.49q7.26,0,9.46-2.2c1.13-1.12,2.25-3.63,3.38-7.52l3,.17q-.25,6.67-.59,9.72a4.32,4.32,0,0,1-1.18,2.87,4.82,4.82,0,0,1-3.05.76q-3.54,0-12.42,0t-12.33,0C841.37,188,837.6,188,834.11,188.15Z"/><path class="cls-2" d="M906.68,188.15c-1.58-.12-5.27-.17-11.07-.17-4.67,0-8,.05-10.05.17v-3.21c3.6-.12,5.66-.48,6.17-1.1s.67-1.81.67-3.89V139.14a3.44,3.44,0,0,0-.55-2.28,2.53,2.53,0,0,0-1.9-.59h-4.47q-5.51,0-6.76,1.52c-.9,1-1.72,3.52-2.45,7.52h-2.79q-.42-4.89-.42-9.8a4,4,0,0,1,.55-2.45,2.42,2.42,0,0,1,2-.67q2.79,0,9.63,0t10.82,0c2.64,0,6.21,0,10.68,0s7.68,0,9.59,0a3,3,0,0,1,2.28.67,3.27,3.27,0,0,1,.59,2.2,90.19,90.19,0,0,1-.76,10.05h-2.87q-.67-5.91-2.11-7.52t-6.08-1.52h-5.24a2,2,0,0,0-1.69.63,3.69,3.69,0,0,0-.51,2.24V180c0,2,.2,3.24.59,3.81a2.67,2.67,0,0,0,1.48.72,43.29,43.29,0,0,0,4.69.38Z"/><path class="cls-2" d="M979.51,188.15c-1.58-.12-5.07-.17-10.48-.17-4.56,0-7.86.05-9.88.17v-3.21c3.26-.12,5.18-.51,5.74-1.19.45-.45.68-1.72.68-3.8V161.19H939V180c0,2,.22,3.24.67,3.81s2.31,1,5.75,1.1v3.21c-1.58-.12-5.07-.17-10.48-.17-4.56,0-7.86.05-9.88.17v-3.21c3.26-.12,5.18-.51,5.74-1.19.45-.45.68-1.72.68-3.8V140.58c0-2-.23-3.29-.68-3.8-.56-.68-2.48-1.07-5.74-1.18v-3.21c2,.11,5.32.16,9.88.16q8.11,0,10.48-.16v3.21q-5.16.17-5.75,1.09c-.45.57-.67,1.83-.67,3.81v16.81h26.61V140.58c0-2-.23-3.29-.68-3.8-.56-.68-2.48-1.07-5.74-1.18v-3.21c2,.11,5.32.16,9.88.16q8.12,0,10.48-.16v3.21c-3.44.11-5.35.47-5.75,1.09s-.67,1.83-.67,3.81V180c0,2,.22,3.24.67,3.81s2.31,1,5.75,1.1Z"/><path class="cls-2" d="M423.67,231.39c-.68,0-2.2-.07-4.54-.07-2,0-3.4,0-4.27.07V230c1.41-.05,2.24-.22,2.48-.51s.29-.74.29-1.65v-8.11H406.12v8.15a3,3,0,0,0,.29,1.65c.17.26,1,.42,2.49.47v1.39c-.69,0-2.2-.07-4.54-.07-2,0-3.4,0-4.28.07V230q2.13-.08,2.49-.51c.2-.2.29-.74.29-1.65v-17a2.85,2.85,0,0,0-.29-1.65q-.36-.43-2.49-.51v-1.39c.88.05,2.31.07,4.28.07,2.34,0,3.85,0,4.54-.07v1.39c-1.49,0-2.32.2-2.49.47a3,3,0,0,0-.29,1.65V218h11.51v-7.23a2.85,2.85,0,0,0-.29-1.65c-.24-.29-1.07-.46-2.48-.51v-1.39c.87.05,2.3.07,4.27.07,2.34,0,3.86,0,4.54-.07v1.39c-1.49,0-2.32.2-2.49.47a3.08,3.08,0,0,0-.29,1.65v17.11a3.08,3.08,0,0,0,.29,1.65c.17.26,1,.42,2.49.47Z"/><path class="cls-2" d="M455.66,230.55a5.78,5.78,0,0,1-3.47,1.28c-1.44,0-2.18-1-2.23-3l-.11,0A4.4,4.4,0,0,1,448,231a5.62,5.62,0,0,1-3.05.81A5,5,0,0,1,441,230.4a4.68,4.68,0,0,1-1.26-3.18,3.57,3.57,0,0,1,2.08-3.54,15.06,15.06,0,0,1,6.58-1.14,11.69,11.69,0,0,1,1.17,0V221a7.67,7.67,0,0,0-.44-3.07c-.53-1-1.6-1.54-3.21-1.54a8.31,8.31,0,0,0-4.35,1.24l-.66-.91a6.6,6.6,0,0,1,2.52-1.94A8.12,8.12,0,0,1,447,214a5.58,5.58,0,0,1,4.54,1.75,6.15,6.15,0,0,1,1,4c0,1,0,2.14,0,3.55s-.06,2.57-.06,3.47a4.88,4.88,0,0,0,.44,2.34,1.09,1.09,0,0,0,.95.59,8.69,8.69,0,0,0,1.5-.11Zm-6.07-4V224h-.4a12.82,12.82,0,0,0-4.86.69,2.31,2.31,0,0,0-1.47,2.27,2.72,2.72,0,0,0,3,2.74,3.85,3.85,0,0,0,3-1.1A2.84,2.84,0,0,0,449.59,226.56Z"/><path class="cls-2" d="M479.06,240.28c-.66-.05-2.18-.08-4.57-.08-1.66,0-2.92,0-3.8.08v-1.36a4.11,4.11,0,0,0,2.08-.4c.22-.2.33-.79.33-1.79V220.24a5.56,5.56,0,0,0-.51-2.93,3.87,3.87,0,0,0-1.86-1.17v-.73a6.61,6.61,0,0,1,3.54-1.13c1,0,1.48.66,1.57,2,.05.59.08,1.21.08,1.87l.11,0a4.57,4.57,0,0,1,2-3,6.24,6.24,0,0,1,3.65-1.14,6,6,0,0,1,4.94,2.2,9.68,9.68,0,0,1,1.79,6.29q0,4.53-2.17,6.83a7.5,7.5,0,0,1-5.73,2.31A6,6,0,0,1,476,230c0,.61,0,1.8,0,3.56s0,2.82,0,3.17a2.49,2.49,0,0,0,.37,1.68,5.06,5.06,0,0,0,2.63.47Zm-3-14.85a5.94,5.94,0,0,0,.41,2.34q.87,2.19,4,2.19A4,4,0,0,0,484,228.3a8.21,8.21,0,0,0,1.25-5c0-4.59-1.58-6.88-4.72-6.88a4,4,0,0,0-4,2.31,5.64,5.64,0,0,0-.41,2.45Z"/><path class="cls-2" d="M512.7,240.28c-.66-.05-2.18-.08-4.57-.08-1.66,0-2.92,0-3.8.08v-1.36a4.11,4.11,0,0,0,2.08-.4c.22-.2.33-.79.33-1.79V220.24a5.56,5.56,0,0,0-.51-2.93,3.86,3.86,0,0,0-1.87-1.17v-.73a6.67,6.67,0,0,1,3.55-1.13c.95,0,1.48.66,1.57,2,0,.59.08,1.21.08,1.87l.11,0a4.57,4.57,0,0,1,2-3,6.24,6.24,0,0,1,3.65-1.14,6,6,0,0,1,4.94,2.2,9.74,9.74,0,0,1,1.79,6.29q0,4.53-2.17,6.83a7.52,7.52,0,0,1-5.73,2.31,6,6,0,0,1-4.49-1.61c0,.61,0,1.8,0,3.56s0,2.82,0,3.17c0,.9.12,1.46.37,1.68s1.14.42,2.63.47Zm-3-14.85a6.14,6.14,0,0,0,.4,2.34Q511,230,514.16,230a4,4,0,0,0,3.44-1.66,8.21,8.21,0,0,0,1.24-5q0-6.89-4.71-6.88a4.07,4.07,0,0,0-4,2.31,5.82,5.82,0,0,0-.4,2.45Z"/><path class="cls-2" d="M546.34,231.39c-.66,0-2.1-.07-4.32-.07-1.53,0-2.74,0-3.61.07V230a4.43,4.43,0,0,0,2.15-.4c.2-.17.29-.75.29-1.72v-8a5.4,5.4,0,0,0-.36-2.41,3.78,3.78,0,0,0-1.94-1.32v-.76a9.68,9.68,0,0,1,4.13-1.14c.81,0,1.21.67,1.21,2,0,.22,0,1.06,0,2.51s0,2.41,0,2.87V228c0,.9.09,1.45.29,1.64a5.85,5.85,0,0,0,2.23.37Zm-2.34-23a2.07,2.07,0,0,1-.59,1.53,2.18,2.18,0,0,1-3,0,2,2,0,0,1-.58-1.51,2,2,0,0,1,2.12-2.16,2,2,0,0,1,1.44.56A2.11,2.11,0,0,1,544,208.43Z"/><path class="cls-2" d="M570.47,231.39c-.68,0-2.09-.07-4.24-.07-1.54,0-2.74,0-3.62.07V230a4.79,4.79,0,0,0,2.16-.4c.19-.17.29-.75.29-1.72v-7.68a5.56,5.56,0,0,0-.51-2.93,3.86,3.86,0,0,0-1.87-1.17v-.73a6.63,6.63,0,0,1,3.51-1.13c.93,0,1.47.66,1.61,2,0,.3,0,.89,0,1.79l.11,0a4.84,4.84,0,0,1,1.94-2.92A6.36,6.36,0,0,1,573.8,214,5,5,0,0,1,577,215a4.58,4.58,0,0,1,1.57,2.44,15.23,15.23,0,0,1,.26,3.29V228a2.78,2.78,0,0,0,.29,1.64,5.85,5.85,0,0,0,2.23.37v1.35c-.66,0-2-.07-4.09-.07-1.61,0-2.86,0-3.73.07V230a4.23,4.23,0,0,0,2.08-.4,3.19,3.19,0,0,0,.26-1.72v-7.24a5.79,5.79,0,0,0-.59-3,3,3,0,0,0-2.74-1.25q-3.07,0-4.13,2.31a5.45,5.45,0,0,0-.37,2.15V228a2.78,2.78,0,0,0,.29,1.64,5.59,5.59,0,0,0,2.16.37Z"/><path class="cls-2" d="M611.86,228.9a8.19,8.19,0,0,1-6.36,2.93,7.44,7.44,0,0,1-5.94-2.38,9.5,9.5,0,0,1-2.07-6.47,9.11,9.11,0,0,1,2.31-6.62,7.57,7.57,0,0,1,5.66-2.37,5.92,5.92,0,0,1,4.63,1.75,6.87,6.87,0,0,1,1.59,4.79,3.86,3.86,0,0,1-.22,1.39l-.48.29H600.56q0,3.91,1.67,5.58a5.49,5.49,0,0,0,4,1.66,8.7,8.7,0,0,0,4.82-1.46Zm-11.15-8.22h7.93a4.88,4.88,0,0,0,0-.84q0-4.17-3.4-4.17a4.07,4.07,0,0,0-3.23,1.31A6.17,6.17,0,0,0,600.71,220.68Z"/><path class="cls-2" d="M628.24,226.53l1.21-.15a5.54,5.54,0,0,0,1.46,2.74,4,4,0,0,0,3,1.1,3.8,3.8,0,0,0,2.51-.71,2.34,2.34,0,0,0,.82-1.85,2.15,2.15,0,0,0-.75-1.69,14.68,14.68,0,0,0-3.05-1.76l-1.1-.53c-2.39-1.13-3.58-2.72-3.58-4.79a4.56,4.56,0,0,1,1.55-3.5q1.56-1.39,5-1.4a6.89,6.89,0,0,1,3.29.62,1.55,1.55,0,0,1,.84,1.5,15.62,15.62,0,0,1-.29,2.85h-1.2a6.6,6.6,0,0,0-1-2.6,3.32,3.32,0,0,0-2.38-.69,3.76,3.76,0,0,0-2.43.67,2.24,2.24,0,0,0-.82,1.84,2.12,2.12,0,0,0,.69,1.62,10.08,10.08,0,0,0,2.5,1.43l1.28.63a9.1,9.1,0,0,1,3.32,2.33,4.36,4.36,0,0,1,.87,2.7,4.49,4.49,0,0,1-1.62,3.51,6.93,6.93,0,0,1-4.7,1.43,7,7,0,0,1-4.32-1,2.92,2.92,0,0,1-.95-2.05C628.28,228.05,628.24,227.31,628.24,226.53Z"/><path class="cls-2" d="M656.62,226.53l1.2-.15a5.55,5.55,0,0,0,1.47,2.74,4,4,0,0,0,3,1.1,3.77,3.77,0,0,0,2.5-.71,2.35,2.35,0,0,0,.83-1.85,2.15,2.15,0,0,0-.75-1.69,15,15,0,0,0-3.05-1.76l-1.11-.53c-2.38-1.13-3.58-2.72-3.58-4.79a4.53,4.53,0,0,1,1.56-3.5c1-.93,2.7-1.4,5-1.4a6.92,6.92,0,0,1,3.29.62,1.55,1.55,0,0,1,.84,1.5,16.56,16.56,0,0,1-.29,2.85h-1.21a6.3,6.3,0,0,0-1-2.6,3.29,3.29,0,0,0-2.37-.69,3.78,3.78,0,0,0-2.44.67,2.27,2.27,0,0,0-.82,1.84,2.1,2.1,0,0,0,.7,1.62,9.89,9.89,0,0,0,2.5,1.43l1.28.63a9.13,9.13,0,0,1,3.31,2.33,4.31,4.31,0,0,1,.88,2.7,4.5,4.5,0,0,1-1.63,3.51,6.91,6.91,0,0,1-4.7,1.43,7,7,0,0,1-4.31-1,2.92,2.92,0,0,1-.95-2.05A19.94,19.94,0,0,1,656.62,226.53Z"/><path class="cls-2" d="M714.09,231.39c-.65,0-2.09-.07-4.31-.07-1.54,0-2.74,0-3.62.07V230a4.51,4.51,0,0,0,2.16-.4c.19-.17.29-.75.29-1.72v-8a5.22,5.22,0,0,0-.37-2.41,3.75,3.75,0,0,0-1.93-1.32v-.76a9.64,9.64,0,0,1,4.13-1.14q1.2,0,1.2,2c0,.22,0,1.06,0,2.51s0,2.41,0,2.87V228a2.78,2.78,0,0,0,.29,1.64,5.9,5.9,0,0,0,2.23.37Zm-2.34-23a2.07,2.07,0,0,1-.58,1.53,2,2,0,0,1-1.5.59,2,2,0,0,1-2-2.08,2,2,0,0,1,2.12-2.16,2,2,0,0,1,1.45.56A2.1,2.1,0,0,1,711.75,208.43Z"/><path class="cls-2" d="M730.55,226.53l1.21-.15a5.46,5.46,0,0,0,1.46,2.74,4,4,0,0,0,3,1.1,3.75,3.75,0,0,0,2.5-.71,2.35,2.35,0,0,0,.83-1.85,2.15,2.15,0,0,0-.75-1.69,15,15,0,0,0-3-1.76l-1.1-.53c-2.39-1.13-3.59-2.72-3.59-4.79a4.53,4.53,0,0,1,1.56-3.5c1-.93,2.7-1.4,5-1.4a6.92,6.92,0,0,1,3.29.62,1.55,1.55,0,0,1,.84,1.5,16.56,16.56,0,0,1-.29,2.85H740.2a6.3,6.3,0,0,0-1-2.6,3.29,3.29,0,0,0-2.37-.69,3.75,3.75,0,0,0-2.43.67,2.25,2.25,0,0,0-.83,1.84,2.13,2.13,0,0,0,.7,1.62,10.08,10.08,0,0,0,2.5,1.43l1.28.63a9.19,9.19,0,0,1,3.32,2.33,4.36,4.36,0,0,1,.87,2.7,4.47,4.47,0,0,1-1.63,3.51,6.91,6.91,0,0,1-4.7,1.43,7,7,0,0,1-4.31-1,2.92,2.92,0,0,1-1-2.05C730.59,228.05,730.55,227.31,730.55,226.53Z"/><path class="cls-2" d="M803.64,231.39c-.68,0-2.19-.07-4.53-.07-2,0-3.4,0-4.28.07V230c1.41-.05,2.24-.22,2.48-.51a2.71,2.71,0,0,0,.3-1.65v-8.11H786.09v8.15a3.08,3.08,0,0,0,.29,1.65c.17.26,1,.42,2.49.47v1.39c-.68,0-2.2-.07-4.54-.07-2,0-3.4,0-4.27.07V230c1.41-.05,2.24-.22,2.48-.51a2.71,2.71,0,0,0,.3-1.65v-17a2.82,2.82,0,0,0-.3-1.65c-.24-.29-1.07-.46-2.48-.51v-1.39c.87.05,2.3.07,4.27.07,2.34,0,3.86,0,4.54-.07v1.39c-1.49,0-2.32.2-2.49.47a3.08,3.08,0,0,0-.29,1.65V218h11.52v-7.23a2.82,2.82,0,0,0-.3-1.65c-.24-.29-1.07-.46-2.48-.51v-1.39c.88.05,2.3.07,4.28.07,2.34,0,3.85,0,4.53-.07v1.39c-1.49,0-2.32.2-2.49.47a3.08,3.08,0,0,0-.29,1.65v17.11a3.08,3.08,0,0,0,.29,1.65c.17.26,1,.42,2.49.47Z"/><path class="cls-2" d="M834.54,228.9a8.21,8.21,0,0,1-6.37,2.93,7.44,7.44,0,0,1-5.94-2.38,9.55,9.55,0,0,1-2.06-6.47,9.1,9.1,0,0,1,2.3-6.62,7.59,7.59,0,0,1,5.67-2.37,5.91,5.91,0,0,1,4.62,1.75,6.87,6.87,0,0,1,1.59,4.79,3.86,3.86,0,0,1-.22,1.39l-.47.29H823.24q0,3.91,1.66,5.58a5.5,5.5,0,0,0,4,1.66,8.71,8.71,0,0,0,4.83-1.46Zm-11.16-8.22h7.94a6.28,6.28,0,0,0,0-.84c0-2.78-1.14-4.17-3.4-4.17a4.1,4.1,0,0,0-3.24,1.31A6.23,6.23,0,0,0,823.38,220.68Z"/><path class="cls-2" d="M866.17,230.55a5.83,5.83,0,0,1-3.48,1.28c-1.44,0-2.18-1-2.23-3l-.11,0A4.35,4.35,0,0,1,858.5,231a5.62,5.62,0,0,1-3,.81,5,5,0,0,1-3.93-1.43,4.68,4.68,0,0,1-1.26-3.18,3.57,3.57,0,0,1,2.08-3.54,15.11,15.11,0,0,1,6.59-1.14,11.69,11.69,0,0,1,1.17,0V221a7.85,7.85,0,0,0-.44-3.07c-.54-1-1.61-1.54-3.22-1.54a8.36,8.36,0,0,0-4.35,1.24l-.66-.91a6.6,6.6,0,0,1,2.52-1.94,8.16,8.16,0,0,1,3.59-.8,5.57,5.57,0,0,1,4.53,1.75,6.15,6.15,0,0,1,1,4c0,1,0,2.14-.05,3.55s-.06,2.57-.06,3.47a4.88,4.88,0,0,0,.44,2.34,1.1,1.1,0,0,0,1,.59,8.69,8.69,0,0,0,1.5-.11Zm-6.07-4V224h-.41a12.82,12.82,0,0,0-4.86.69,2.32,2.32,0,0,0-1.46,2.27,2.7,2.7,0,0,0,3,2.74,3.84,3.84,0,0,0,3-1.1A2.85,2.85,0,0,0,860.1,226.56Z"/><path class="cls-2" d="M889.05,231.39c-.9,0-2.32-.07-4.27-.07-1.54,0-2.75,0-3.62.07V230a4.37,4.37,0,0,0,2.12-.4c.19-.15.29-.72.29-1.72V210.84a8.6,8.6,0,0,0-.29-3.07,3.75,3.75,0,0,0-2-1.24v-.77a9.31,9.31,0,0,1,4.13-1.24c.8,0,1.2.65,1.2,2,0,.41,0,2.26,0,5.54s0,5.44,0,6.49V228c0,.92.11,1.47.33,1.64a4.68,4.68,0,0,0,2.19.37Z"/><path class="cls-2" d="M915.31,230.29a5.89,5.89,0,0,1-4.25,1.54,3.32,3.32,0,0,1-3.14-1.46,9,9,0,0,1-.62-4.1c0-2.56,0-5.76.07-9.62H904.7v-1.17a5,5,0,0,0,2.64-1.38,9.16,9.16,0,0,0,1-3.88h1.86v4.46h4.21v2h-4.17v9.58c0,1.57.18,2.54.55,2.93a2,2,0,0,0,1.64.62,5.19,5.19,0,0,0,2.23-.55Z"/><path class="cls-2" d="M938,231.39c-.69,0-2.1-.07-4.25-.07-1.53,0-2.74,0-3.62.07V230a5.18,5.18,0,0,0,2.16-.4c.2-.15.29-.72.29-1.72V210.84a8.4,8.4,0,0,0-.32-3.07,3.75,3.75,0,0,0-2-1.24v-.77a9.76,9.76,0,0,1,4.14-1.24c.82,0,1.24.65,1.24,2q0,6.76-.26,11.41l.11,0a5,5,0,0,1,2-2.78,6.52,6.52,0,0,1,3.88-1.14q3.79,0,4.68,3.37a15.14,15.14,0,0,1,.25,3.25V228c0,.92.1,1.47.29,1.64a5.92,5.92,0,0,0,2.24.37v1.35c-.66,0-2-.07-4.1-.07-1.61,0-2.85,0-3.73.07V230a4.2,4.2,0,0,0,2.08-.4,3.19,3.19,0,0,0,.26-1.72v-7.17a6.12,6.12,0,0,0-.55-3,2.91,2.91,0,0,0-2.74-1.25,5,5,0,0,0-2.74.72,3.52,3.52,0,0,0-1.5,1.59,6.17,6.17,0,0,0-.29,2V228c0,.9.09,1.45.29,1.64A5.59,5.59,0,0,0,938,230Z"/><path class="cls-2" d="M203.23,211.7a6.63,6.63,0,0,1,4.16-2.08,7.93,7.93,0,0,1,6,1.88l28.26,21.85a22.9,22.9,0,0,0,16.55,5.39c15.17-1.29,20.62-16.82,11-30.29l-16.87-25.87c-3.19-6.08-2.46-10.29-.17-12.48l58,81.75a114,114,0,0,1-30.12,26.66Z"/><path class="cls-2" d="M252.3,170a7.34,7.34,0,0,1,8-.93,8.59,8.59,0,0,1,3.14,2.57l22.71,29.14a23.88,23.88,0,0,0,13.61,8.77c10.14,2.23,16.6-3.58,20.61-14.75,6.93-22.4,5-24.1,6.44-42.31.34-4.26,3.55-3.63,4.58.52.08.28.15.56.21.85A114.16,114.16,0,0,1,313,248.07Z"/><path class="cls-2" d="M173.34,279.8c7.9.41,16.29,3.46,34.87,5.33a47.86,47.86,0,0,0,17.11-1.44c16.49-5.23,16.59-20.63,10-30.26l-31.06-31.51c-3.22-4.3-3-8-1.06-10.18l72.69,69.19a115.24,115.24,0,0,1-30.47,11.57,114.05,114.05,0,0,1-75.32-8.71C165.91,281.76,168.69,279.56,173.34,279.8Z"/><circle class="cls-2" cx="301.63" cy="189.6" r="10.7"/><circle class="cls-2" cx="254.33" cy="218.94" r="10.7"/><circle class="cls-2" cx="214.6" cy="261.29" r="10.7"/><path class="cls-2" d="M110,205.42A6,6,0,0,0,114.1,202l17,6.64a4.34,4.34,0,0,0,2.21,4.87L129,226.86a4.91,4.91,0,1,0-1,9.65L129.19,248h0a2.45,2.45,0,1,0,3,1.81,1.91,1.91,0,0,0-.13-.36l9.41-5.31a3.83,3.83,0,0,0,3.79,1.19l.16,0,3.51,9.52a3.86,3.86,0,0,0,2.52,7.27l.39-.12,4.91,10.22a3.85,3.85,0,1,0,1-.41,2.91,2.91,0,0,0-.5.16l-4.9-10.2a3.88,3.88,0,0,0,1.93-4.31,3.92,3.92,0,0,0-.73-1.49L167,243.59a3.87,3.87,0,1,0-1.18-3.35l-17.73.57s0-.07,0-.1a3.86,3.86,0,1,0-7,3L131.72,249a2.47,2.47,0,0,0-2-1l-1.24-11.53.34-.07a4.9,4.9,0,0,0,3.64-5.8l20.3-5.65a4.91,4.91,0,0,0,9.41-2.75,5.24,5.24,0,0,0-.45-1.18l18.72-11.51a4.91,4.91,0,1,0,2.86-7.59l-.56.17-17.46-39.46a6.07,6.07,0,0,0,2.57-2.76l30.88,19A6.09,6.09,0,1,0,206,176l5.94-21.78a6.06,6.06,0,0,0,6.34-3.31l22.6,6.59a3.4,3.4,0,0,0,0,1.42,3.3,3.3,0,1,0,3.75-4l.93-12.31h.07a1.42,1.42,0,0,0,.14-2.71l1.34-17.55a5.91,5.91,0,0,0,1.61-.16c.13,0,.25-.08.38-.12l9.69,19.16a2.23,2.23,0,1,0,3.43,1.31,2.24,2.24,0,0,0-2.7-1.65l-.21.08-9.66-19.1a6,6,0,0,0,2.58-2.06l29.19,18.91a5,5,0,0,0,.09,2,5.12,5.12,0,0,0,10-2.41,4.94,4.94,0,0,0-.38-1l7.68-8.64a1.71,1.71,0,0,0,1.28.2,1.66,1.66,0,0,0,1.1-.91L316,132a4.27,4.27,0,0,0,0,1.88,4.32,4.32,0,1,0,.13-2.44l-14.85-4.14a1.7,1.7,0,0,0,0-.55,1.67,1.67,0,0,0-1.75-1.27l-5-19.67a7.13,7.13,0,1,0-3.36.17L287,134.33a4.94,4.94,0,0,0-1.66.12,3.86,3.86,0,0,0-.68.22l-11.06-23.81a3.74,3.74,0,0,0-2.11-7.17,3.82,3.82,0,0,0-1,.41l-11-23.65a6.08,6.08,0,1,0-4.46.48l-6.63,29.24a6,6,0,0,0-4.25.81L231.2,92.09a2.19,2.19,0,0,0-1.95-3.78,2,2,0,0,0-.5.19l-11-16.16a6.1,6.1,0,1,0-9.6-3.43h0L166.57,81.17a3.43,3.43,0,0,0-.06-.34,4.31,4.31,0,1,0-3.32,5.23L170,109.69a7.89,7.89,0,0,0-2.75,13.13L161.5,130a2.14,2.14,0,0,0-1.52-.2,1.06,1.06,0,0,0-.19.06l-8.47-20.83a2.51,2.51,0,1,0-.57.22h0l8.49,20.88a2.13,2.13,0,1,0,3.28,1.25,2,2,0,0,0-.58-1l5.72-7.17a7.89,7.89,0,1,0,3.15-13.77l-.29.08-6.8-23.6a4.33,4.33,0,0,0,2.88-4.16l41.64-12.27a6.11,6.11,0,0,0,2.36,3l-14.51,23.9a6.09,6.09,0,1,0,2.07,8.85l18.71,11.85a3.76,3.76,0,0,0-.33,2.63,3.63,3.63,0,0,0,.64,1.36L194,141.37a6.7,6.7,0,0,0-5.13-2.07l-.62-13.24a1.91,1.91,0,0,0,.33-.06,3.22,3.22,0,1,0-.91.09l.62,13.26a5.89,5.89,0,0,0-.71.13,6.71,6.71,0,1,0,6.8,2.33l23.19-20.26A3.74,3.74,0,0,0,224,118.8l17.31-1.73c0,.18.06.36.1.54a6.13,6.13,0,0,0,5.18,4.61l-1.34,17.52a.83.83,0,0,0-.22,0,1.41,1.41,0,0,0,0,2.75l-.93,12.28a3.12,3.12,0,0,0-.74.09,3.26,3.26,0,0,0-2.29,2l-22.52-6.56a6,6,0,0,0,.23-3.62,6.1,6.1,0,1,0-7.38,7.35l-5.93,21.73a6.13,6.13,0,0,0-2.76,0,6.06,6.06,0,0,0-3.59,2.49l-31-19a6.09,6.09,0,0,0-9-7.19l-23.4-27.2a8.92,8.92,0,1,0-5.75,2.34l2.54,39.57-.25,0a3.09,3.09,0,0,0-1.92,1.41l-14.66-7a6.1,6.1,0,1,0-.25.52l14.66,7a3,3,0,0,0,.73,3.26L112.2,194.7A6,6,0,1,0,110,205.42Zm55.74,35.41a4.22,4.22,0,0,0,.11.85,3.79,3.79,0,0,0,.72,1.48l-13.47,12.39a3.86,3.86,0,0,0-3.55-.94l-.15,0-3.52-9.53a3.87,3.87,0,0,0,2.25-3.74Zm126-134.8a7,7,0,0,0,2.23-.11l5,19.67a1.67,1.67,0,0,0-.94,1.92,1.83,1.83,0,0,0,.32.64l-7.55,8.49a5.17,5.17,0,0,0-3.26-2.23Zm-36.19-25a6,6,0,0,0,2.5-.08,6.17,6.17,0,0,0,.86-.28l11,23.74a3.73,3.73,0,0,0,3,6.56l11.1,23.91a5.1,5.1,0,0,0-2.51,3.12l-29-18.79a6.09,6.09,0,0,0-3.64-8.94Zm-31.66,37.16a1.7,1.7,0,0,1,0-.22,3.74,3.74,0,0,0-4.52-2.76,3.69,3.69,0,0,0-2.12,1.4L198.5,104.79a6.07,6.07,0,0,0-1.89-8.06l14.51-23.9a6,6,0,0,0,4.35.57,5.84,5.84,0,0,0,1.76-.73l11,16.17a2.17,2.17,0,0,0-.64,2.12,2.2,2.2,0,0,0,2.65,1.62,2.32,2.32,0,0,0,.44-.16l12.9,18.89a6.08,6.08,0,0,0-2.41,5.18Zm-62.43,102.3a4.91,4.91,0,0,0-8.82,3.84L132.35,230a4.89,4.89,0,0,0-2.84-3l4.37-13.3a4.31,4.31,0,0,0,5.63-5.08,4.37,4.37,0,0,0-.25-.72l15.18-7.5a6.09,6.09,0,0,0,10.93-.57l14.44,5.36a4.83,4.83,0,0,0-.08,2.59,4.66,4.66,0,0,0,.45,1.16Zm20.79-18.21A4.91,4.91,0,0,0,180,204.7l-14.44-5.36a6.09,6.09,0,0,0-6-7.94l.58-28.46a6.13,6.13,0,0,0,3.68.27,7.83,7.83,0,0,0,1-.34Zm-51.68-75.1a8.64,8.64,0,0,0,4.73-1.93l23.36,27.16a6.09,6.09,0,0,0,.88,10.24L159,191.45l-.63.12a6,6,0,0,0-2.84,1.58l-20.4-21a3.08,3.08,0,0,0-2-5.37Zm.71,45.21a3.07,3.07,0,0,0,2.46.46,3.3,3.3,0,0,0,.88-.38l20.47,21.08a6.09,6.09,0,0,0-1.25,5.35,5.61,5.61,0,0,0,.34,1L139,207.43a4.32,4.32,0,0,0-7.68.66l-17-6.62a6,6,0,0,0,.15-3.34,6.1,6.1,0,0,0-1.81-3.06Z"/><path class="cls-2" d="M105.16,243.65c-.2-.46-.37-.93-.57-1.37-5.1-11.1-8-25.44-10.64-41.81-.21-1.37-.4-2.73-.57-4.11,0-.1,0-.2,0-.3-.12-1.07-.23-2.15-.33-3.23-.26-2.92-.4-5.62-.48-8,0-.6,0-1.19-.06-1.78,0-.29,0-.58,0-.87,0-.47,0-.92,0-1.34.11-68.41,55.92-124.27,124.33-124.44a124.35,124.35,0,0,1,93.89,42.39c-.29-.45-.59-.9-.89-1.34l-.16-.24-.58-.83-.32-.46c-.09-.13-.17-.26-.27-.38-.3-.43-.61-.86-.93-1.28,0,0,0,0,0,0l-.07-.1c-.27-.38-.55-.75-.83-1.11l-.19-.25a1.71,1.71,0,0,0-.11-.14l-.09-.11-.07-.09c-.06-.09-.13-.17-.2-.26-.25-.34-.52-.68-.79-1s-.67-.84-1-1.25l-.15-.18s0,0,0,0a0,0,0,0,0,0,0l-.25-.29c-.22-.28-.44-.54-.68-.81a3.88,3.88,0,0,0-.26-.31l0,0-.91-1a.27.27,0,0,0-.07-.08l-.51-.57-.94-1-.76-.81-.31-.34-.39-.39-.58-.62c-.08-.07-.15-.16-.23-.23h0l-.59-.59,0,0-.88-.87c-.14-.15-.29-.29-.44-.44l-.63-.61h0a1.53,1.53,0,0,0-.18-.18l-.45-.43-.69-.65-.68-.62c-.22-.21-.44-.42-.67-.62l.56.52A112.77,112.77,0,0,0,221.88,49l-1.32,0h-.75l-.61,0h-2.11a132.18,132.18,0,0,0-95.26,223.84A152.74,152.74,0,0,1,106.15,246C105.8,245.18,105.47,244.41,105.16,243.65Z"/><path class="cls-2" d="M332.89,244.94A132.33,132.33,0,0,0,310.56,87.62a133.21,133.21,0,0,0-22.37-18c44,42.37,53.41,89.11,53.54,110.76.4,68.23-54.69,124.45-122.92,125.37a124.7,124.7,0,0,1-111-64.72l.54,1.32a140.2,140.2,0,0,0,12.88,23.45,101.83,101.83,0,0,0,46.17,37.9,132.54,132.54,0,0,0,143.16-29.1,134.11,134.11,0,0,0,12.51-14.44l24.29.61Z"/><rect class="cls-2" y="735.97" width="1080" height="295.13"/><rect class="cls-2" x="802.6" y="335.7" width="238.06" height="159.53"/><rect class="cls-3" x="810.49" y="547.36" width="252.98" height="144.78"/><text class="cls-4" transform="translate(213.54 938.71)">OZONE HEALTH</text><text class="cls-5" transform="translate(265.03 973.71)">Happiness is Health</text><text class="cls-6" transform="translate(324.54 827.16)">Carrara</text><text class="cls-7" transform="translate(246.52 497.52)">#160F36</text><text class="cls-8" transform="translate(863.02 426.75)">#160F36</text><text class="cls-9" transform="translate(868.01 634.19)">#50C8EF</text></svg>